<svg width="911" height="1051" viewBox="0 0 911 1051" fill="none" xmlns="http://www.w3.org/2000/svg">
<g opacity="0.5">
<path d="M241.32 798.611C273.529 829.159 314.915 851.074 358.555 859.536C395.855 866.624 434.198 864.312 470.14 853.182C480.503 849.785 490.507 844.983 500.538 838.527C545.79 810.494 591.253 761.596 650.159 754.778C722.957 746.657 845.581 773.565 939.439 698.975C966.638 677.652 985.231 645.501 994.314 611.289C1001.63 583.666 1000.46 553.871 994.553 526.036C985.107 480.838 964.911 439.285 938.046 400.933C922.875 379.058 905.142 358.286 887.133 338.782C849.985 298.866 808.318 262.949 762.876 232.19C693.887 186.037 613.628 152.046 530.792 151.353C512.213 151.31 493.358 152.534 475.222 156.57C452.62 161.298 431.369 168.973 410.341 178.689C381.623 191.717 354.753 208.464 329.758 227.278C242.402 293.319 177.195 390.383 155.574 499.217C132.057 622.908 173.012 734.018 241.32 798.611Z" fill="url(#paint0_linear_7401_43)"/>
<path d="M241.32 798.611C273.529 829.159 314.915 851.074 358.555 859.536C395.855 866.624 434.198 864.312 470.14 853.182C480.503 849.785 490.507 844.983 500.538 838.527C545.79 810.494 591.253 761.596 650.159 754.778C722.957 746.657 845.581 773.565 939.439 698.975C966.638 677.652 985.231 645.501 994.314 611.289C1001.63 583.666 1000.46 553.871 994.553 526.036C985.107 480.838 964.911 439.285 938.046 400.933C922.875 379.058 905.142 358.286 887.133 338.782C849.985 298.866 808.318 262.949 762.876 232.19C693.887 186.037 613.628 152.046 530.792 151.353C512.213 151.31 493.358 152.534 475.222 156.57C452.62 161.298 431.369 168.973 410.341 178.689C381.623 191.717 354.753 208.464 329.758 227.278C242.402 293.319 177.195 390.383 155.574 499.217C132.057 622.908 173.012 734.018 241.32 798.611Z" fill="url(#paint1_linear_7401_43)"/>
</g>
<path d="M652.257 706.694C731.421 627.548 731.421 499.228 652.257 420.082C573.092 340.937 444.741 340.937 365.576 420.082C286.411 499.228 286.412 627.548 365.576 706.694C444.741 785.84 573.092 785.84 652.257 706.694Z" fill="#553E93"/>
<path d="M527.018 361.531C527.832 362.073 528.69 362.615 529.594 363.157C529.685 362.57 572.307 376.081 576.691 378.069C589.347 383.853 597.121 385.932 583.245 390.315C589.257 388.417 602.906 425.471 612.443 423.935C621.754 422.444 624.511 432.927 626.952 440.112C628.263 443.908 632.331 446.167 630.794 450.731C630.297 452.177 623.653 455.16 624.15 456.154C626.952 461.441 639.653 462.073 639.743 469.891C638.523 471.834 636.67 472.783 634.139 472.692C628.263 475.087 633.822 479.832 634.952 483.537C637.664 492.439 646.207 500.347 652.354 490.225C658.546 480.058 644.354 470.071 652.987 459.678C658.049 453.578 671.518 464.513 668.309 452.9C667.405 449.556 653.348 434.825 661.122 432.656C661.484 432.566 661.755 431.797 661.936 430.532C638.885 403.917 608.556 382.995 572.714 371.11C557.618 366.049 542.25 362.886 527.018 361.531Z" fill="#786AB5"/>
<path d="M689.326 471.02C688.332 469.123 678.343 480.103 676.264 481.278C668.671 485.48 666.998 477.211 660.625 485.932C659.495 487.469 647.97 502.742 647.924 501.07C648.15 506.764 645.8 512.367 648.512 517.835C650.953 522.715 645.213 527.144 645.529 532.295C645.981 539.073 639.789 543.682 641.371 550.415C642.727 556.244 646.252 560.537 646.252 566.728C646.252 576.624 644.489 581.143 652.444 588.237C657.552 592.801 664.241 608.572 673.236 599.67C674.908 598.043 691.315 584.893 690.366 583.854C696.197 590.045 691.044 585.978 699.36 585.617C701.62 585.526 697.688 642.643 694.253 641.333C694.795 641.559 695.428 641.469 696.151 641.197C698.05 636.679 699.767 632.024 701.349 627.28C719.157 573.551 713.236 517.699 689.326 471.02Z" fill="#786AB5"/>
<path d="M594.454 660.809C594.5 654.98 583.607 649.512 577.686 649.783C564.985 650.28 561.64 646.213 549.843 643.14C539.945 640.565 541.482 623.71 526.43 622.987C518.43 622.58 503.334 600.845 495.424 607.352C490.181 611.644 480.147 600.122 476.622 600.076C468.531 599.986 475.085 604.776 469.797 598.766C466.316 594.789 456.734 603.149 454.745 605.499C450.813 610.063 433.773 603.194 431.152 596.642C430.203 594.292 435.672 584.938 431.604 578.296C430.067 575.72 418.767 577.618 417.005 575.901C414.654 573.596 423.061 565.191 422.112 563.429C418.18 556.109 405.253 574.455 399.603 559.724C395.038 547.749 401.004 543.23 402.179 531.707C402.722 526.285 411.988 523.619 416.462 525.562C423.649 528.725 422.7 525.788 428.169 525.2C432.463 524.748 437.073 529.629 441.186 530.352C446.067 531.21 442.723 544.947 447.333 548.246C450 550.144 449.954 529.764 450.135 529.267C453.073 520.998 465.864 521.766 467.943 514.807C473.006 497.681 484.577 498.991 498.633 492.936C505.323 490.044 521.865 486.7 526.024 480.148C533.843 467.947 513.323 449.692 507.989 441.061C507.944 440.97 503.244 446.348 502.159 446.393C498.181 446.574 494.475 424.16 486.882 437.039C485.435 439.479 479.876 440.202 482.949 443.817C489.006 450.866 477.254 452.584 473.593 451.544C469.887 450.55 451.627 439.976 458.045 434.057C471.153 422.037 474.09 428.273 487.695 428.182C503.244 428.137 503.831 442.733 516.713 427.098C520.283 422.76 497.006 410.378 501.616 404.911C517.888 385.48 526.792 428.634 532.894 436.09C541.798 447.026 547.538 441.241 546.815 429.176C546.499 423.483 558.567 418.196 559.425 412.05C559.606 410.785 551.606 399.488 550.431 398.72C546.227 396.009 545.278 393.162 543.109 390.496C540.397 387.107 536.148 392.168 533.707 389.14C532.577 387.739 512.148 388.507 509.978 388.553C499.266 388.146 487.243 388.507 476.396 388.643C471.966 388.462 448.463 399.94 447.83 390.541C447.514 385.886 453.118 377.708 443.129 381.503C439.92 382.723 437.932 380.916 438.564 380.78C431.694 382.181 418.813 386.971 413.298 391.942C410.225 394.698 417.547 395.963 418.044 398.313C418.993 402.832 407.558 411.282 405.027 414.219C395.942 424.703 396.349 438.621 384.1 448.788C369.953 460.537 369.184 477.753 369.049 493.976C369.004 501.838 362.224 505.137 366.518 514.039C370.134 521.63 376.913 525.291 378.043 534.509C378.767 540.564 374.021 546.167 376.326 552.087C379.128 559.362 384.507 565.779 391.061 569.213C405.072 576.579 414.248 582.092 423.242 595.558C434.361 612.277 454.248 604.957 447.74 621.857C444.983 628.951 438.022 632.34 435.174 639.932C431.739 649.015 438.338 655.612 442.542 662.978C446.791 670.434 448.372 679.336 455.83 684.397C461.164 688.012 470.927 691.039 472.283 698.405C474.452 710.154 464.554 724.795 465.638 735.549C466.362 742.779 466.497 750.19 472.78 754.935C484.125 763.43 481.413 751.591 488.464 745.988C495.063 740.746 502.837 742.282 510.385 740.204C517.3 738.306 509.074 735.73 511.876 734.194C517.797 730.85 521.323 735.866 527.018 730.805C532.171 726.195 539.131 724.84 541.572 717.61C545.504 705.771 563.358 710.109 570.77 700.89C575.335 695.242 577.324 689.187 579.403 682.318C581.889 673.823 594.364 669.937 594.454 660.809C594.5 654.708 594.364 666.909 594.454 660.809Z" fill="#786AB5"/>
<path d="M470.339 294.382C467.989 298.539 444.259 334.96 449.231 370.568L475.04 361.305L486.837 313.315L470.339 294.382Z" fill="#FDAD9B"/>
<path d="M573.482 279.469C573.482 279.469 557.618 251.272 518.973 259.09C480.328 266.862 459.265 321.629 469.752 430.08C469.752 430.08 531.131 405.905 610.907 425.381C610.907 425.335 597.799 320.319 573.482 279.469Z" fill="#FF8548"/>
<path d="M602.952 268.082L575.787 294.924C575.787 294.924 506.182 313.541 486.837 313.315C467.492 313.089 459.898 299.081 459.898 299.081C459.898 299.081 476.215 273.505 509.255 261.937C512.374 260.852 515.583 259.903 519.018 259.09C524.713 257.734 530.498 256.966 536.284 256.605C570.409 254.571 602.952 268.082 602.952 268.082Z" fill="#FF8548"/>
<path d="M602.952 268.082C607.291 272.737 600.601 277.843 593.098 285.254C585.596 292.664 577.867 297.002 575.787 294.924C573.708 292.845 578.138 285.163 585.641 277.752C593.144 270.296 600.963 265.913 602.952 268.082Z" fill="#66192D"/>
<path d="M579.403 295.014C579.403 295.014 578.996 289.637 585.821 282.813C589.935 278.701 595.087 275.99 598.567 274.499C600.647 273.595 603.042 274.589 603.856 276.713L606.025 282.271L595.901 288.733L579.403 295.014Z" fill="#FDAD9B"/>
<path d="M531.447 394.427C531.447 394.427 615.2 349.466 645.257 398.494C667.495 434.78 634.093 468.58 510.159 465.146C510.159 465.146 497.91 459.452 500.893 429.99C502.023 418.377 531.447 394.427 531.447 394.427Z" fill="#FFD00E"/>
<path d="M531.447 394.427C531.447 394.427 419.897 349.194 397.795 377.482C372.439 409.972 396.756 465.191 514.362 445.444L528.69 430.035L531.447 394.427Z" fill="#FFD00E"/>
<path d="M500.125 438.124C500.125 438.124 479.56 438.937 469.887 443.636C460.215 448.336 465.367 459.768 484.983 459.452C504.6 459.136 503.108 456.244 503.108 456.244C503.108 456.244 499.402 446.257 500.125 438.124Z" fill="#66192D"/>
<path d="M509.978 465.372C496.238 455.657 500.577 430.261 500.622 429.99L500.667 429.854L500.803 429.809L585.505 399.307L585.686 399.759L501.119 430.216C500.803 432.204 497.323 455.792 510.295 465.01L509.978 465.372Z" fill="#020202"/>
<path d="M526.431 396.596C519.606 396.596 514.046 394.879 509.481 391.49C500.893 385.073 499.311 374.906 500.577 368.083L508.758 363.383C509.165 361.169 524.984 369.438 524.939 369.438C525.029 369.483 532.487 371.607 558.386 358.503C576.42 349.375 585.505 336.406 586.183 318.873C586.68 305.678 580.714 298.222 579.313 295.014C579.132 294.607 588.036 285.751 587.765 284.847L594.455 281.503C594.229 280.735 600.873 278.159 600.782 277.933L605.935 282.271C608.466 288.1 613.89 301.476 613.212 319.913C612.489 339.072 604.489 365.462 570.59 382.633C552.194 391.942 537.685 396.596 526.431 396.596Z" fill="#FDAD9B"/>
<path d="M520.961 397.681H448.644C447.152 397.681 445.796 396.732 445.299 395.331L430.293 350.912C429.525 348.652 431.242 346.348 433.638 346.348H503.153C506.317 346.348 509.119 348.336 510.114 351.318L524.261 393.162C525.029 395.376 523.357 397.681 520.961 397.681Z" fill="#66192D"/>
<path d="M516.396 397.681H444.124C442.587 397.681 441.276 396.732 440.779 395.331L425.773 350.912C425.005 348.652 426.722 346.348 429.118 346.348H498.633C501.797 346.348 504.6 348.336 505.594 351.318L519.741 393.162C520.51 395.376 518.792 397.681 516.396 397.681Z" fill="#66192D"/>
<path d="M465.774 370.523C465.774 368.851 467.718 368.128 469.435 368.128C471.153 368.128 473.955 369.981 473.955 372.331C473.955 374.861 471.921 375.223 470.203 375.223C468.486 375.268 465.774 372.692 465.774 370.523Z" fill="#DEEBE9"/>
<path d="M543.018 391.4H444.079V397.681H545.097C546.273 397.681 547.222 396.732 547.222 395.557C547.177 393.253 545.324 391.4 543.018 391.4Z" fill="#66192D"/>
<path d="M511.289 368.806C511.244 368.67 507.718 355.52 505.413 351.408C503.153 347.387 500.351 346.573 500.351 346.573L500.487 346.121C500.622 346.167 503.515 346.98 505.865 351.182C508.17 355.34 511.651 368.128 511.786 368.67L511.289 368.806Z" fill="#66192D"/>
<path d="M521.956 391.626C519.289 391.626 518.611 390.451 518.566 390.406V390.36L512.916 373.686L513.368 373.551L518.973 390.18C519.063 390.27 519.696 391.129 521.911 391.129V391.626H521.956Z" fill="#66192D"/>
<path d="M591.426 358.096C591.019 358.096 590.613 358.006 590.251 357.78C588.488 356.74 588.533 353.487 590.341 350.279C591.2 348.787 592.285 347.612 593.46 346.844C594.726 346.076 595.901 345.895 596.76 346.438C598.522 347.477 598.477 350.73 596.669 353.939C595.223 356.469 593.144 358.096 591.426 358.096ZM595.675 347.115C595.178 347.115 594.635 347.296 594.002 347.703C592.963 348.335 591.968 349.465 591.2 350.776C589.663 353.396 589.483 356.243 590.748 356.966C592.014 357.689 594.364 356.108 595.901 353.487C597.438 350.866 597.618 348.019 596.353 347.296C596.172 347.161 595.901 347.115 595.675 347.115Z" fill="#F18C7E"/>
<path d="M536.826 256.514C532.08 256.379 528.464 255.881 525.753 252.718L517.3 242.867L514.86 240.021L500.396 223.166L507.99 242.867L512.554 254.707L514.001 258.457C514.995 260.988 513.684 262.163 512.78 265.145C512.419 266.365 509.933 273.776 516.396 273.821C524.487 273.866 534.747 264.557 536.962 256.514C536.917 256.514 536.871 256.514 536.826 256.514Z" fill="#FDAD9B"/>
<path d="M519.651 236.541C519.651 236.541 535.606 221.358 526.385 208.57C517.21 195.782 514.905 229.13 514.905 229.13L517.481 236.858L519.651 236.541Z" fill="#66192D"/>
<path d="M517.21 242.552C517.255 242.642 517.255 242.777 517.3 242.913C518.792 249.556 512.6 254.752 512.6 254.752L512.554 254.707L507.989 242.868C509.933 241.422 512.78 239.705 514.86 240.021C515.899 240.157 516.803 240.925 517.21 242.552Z" fill="#66192D"/>
<path d="M483.492 234.282C479.876 222.443 484.938 210.423 494.792 207.44C504.6 204.458 515.492 211.643 519.108 223.482C522.724 235.321 517.662 247.341 507.809 250.323C497.955 253.351 487.063 246.166 483.492 234.282Z" fill="#FDAD9B"/>
<path d="M515.718 221.81C515.718 221.81 510.656 225.47 506.408 222.398C502.159 219.325 499.131 216.388 489.639 221.132C480.102 225.877 469.706 223.753 467.763 218.421C465.819 213.089 470.384 208.977 476.35 209.248C482.317 209.519 475.085 206.266 479.243 200.662C483.401 195.059 493.978 200.843 499.176 198.041C504.419 195.24 523.041 192.845 526.385 208.661L515.718 221.81Z" fill="#66192D"/>
<path d="M519.696 224.973C518.476 226.826 516.125 227.458 514.453 226.374C512.781 225.289 512.419 222.894 513.639 220.997C514.86 219.144 517.21 218.511 518.882 219.596C520.555 220.68 520.916 223.075 519.696 224.973Z" fill="#FDAD9B"/>
<path d="M478.249 216.523C477.887 216.523 477.571 216.478 477.209 216.387C475.085 215.845 474.452 214.715 474.633 213.857C474.814 212.863 476.034 211.914 477.932 212.095C480.78 212.366 482.317 211.417 482.362 211.417L482.723 212.004C482.633 212.049 480.961 213.089 477.887 212.772C476.486 212.637 475.447 213.269 475.356 213.947C475.221 214.67 476.034 215.303 477.435 215.664C481.096 216.568 487.424 210.92 487.515 210.875L487.966 211.372C487.65 211.688 482.226 216.523 478.249 216.523Z" fill="white"/>
<path d="M494.701 203.283C490.814 203.283 487.379 201.611 487.062 201.295L487.605 200.843L487.334 201.069L487.56 200.843C487.921 201.159 493.571 203.87 498.407 201.973C500.035 201.34 501.436 200.617 502.837 199.894C505.639 198.403 508.08 197.137 510.882 197.68L510.747 198.358C508.215 197.86 505.865 199.081 503.153 200.481C501.752 201.204 500.306 201.973 498.679 202.605C497.368 203.057 496.012 203.283 494.701 203.283Z" fill="white"/>
<path d="M521.549 207.758C520.509 207.758 518.611 206.176 518.114 205.181C517.752 204.458 518.114 204.096 518.295 204.006C519.696 203.147 521.685 205.859 522.091 206.402L522.137 206.447V206.492C522.363 207.351 522.001 207.622 521.775 207.712C521.775 207.758 521.685 207.758 521.549 207.758ZM518.927 204.548C518.837 204.548 518.747 204.548 518.701 204.594C518.656 204.639 518.747 205.046 519.425 205.724C520.374 206.673 521.323 207.125 521.549 207.08C521.549 207.08 521.549 206.989 521.504 206.763C520.826 205.769 519.651 204.548 518.927 204.548Z" fill="white"/>
<path d="M631.382 426.782C629.981 426.782 628.67 426.42 627.449 425.742C625.416 424.568 624.014 422.534 623.562 420.049C623.11 417.563 623.608 414.897 624.918 412.593C627.721 407.758 633.416 405.769 637.574 408.164C641.777 410.605 642.907 416.479 640.105 421.359C638.749 423.709 636.715 425.426 634.32 426.285C633.37 426.646 632.331 426.782 631.382 426.782ZM633.687 408.074C630.704 408.074 627.54 409.882 625.732 413.045C624.512 415.169 624.06 417.609 624.466 419.868C624.873 422.082 626.094 423.89 627.901 424.929C629.709 425.968 631.879 426.104 634.003 425.381C636.173 424.613 638.026 423.031 639.291 420.862C641.823 416.479 640.873 411.102 637.122 408.978C636.082 408.345 634.907 408.074 633.687 408.074Z" fill="#66192D"/>
<path d="M512.78 282.723L512.735 281.548C533.482 280.961 540.984 263.157 541.075 262.976L542.16 263.428C542.069 263.609 540.216 268.173 535.651 272.872C531.402 277.21 523.99 282.407 512.78 282.723Z" fill="#66192D"/>
<path d="M522.679 292.71L522.046 291.716C522.137 291.67 532.758 284.937 534.114 272.917L535.289 273.053C533.843 285.615 522.769 292.619 522.679 292.71Z" fill="#66192D"/>
<path d="M478.407 298.009L474.136 310.876L475.251 311.246L479.522 298.38L478.407 298.009Z" fill="#66192D"/>
<path d="M435.898 341.602C435.672 341.602 435.446 341.512 435.31 341.331C434.406 340.156 433.412 338.982 432.463 337.852C432.191 337.536 432.237 337.039 432.553 336.767C432.869 336.496 433.367 336.541 433.638 336.858C434.632 337.987 435.581 339.208 436.53 340.382C436.802 340.699 436.711 341.196 436.395 341.422C436.214 341.512 436.078 341.602 435.898 341.602Z" fill="#FF8548"/>
<path d="M332.619 678.568C332.212 678.568 331.851 678.251 331.851 677.799C331.851 677.393 332.167 677.031 332.619 677.031C335.557 676.986 338.585 676.941 341.613 676.805C342.02 676.76 342.382 677.122 342.382 677.528C342.382 677.935 342.065 678.296 341.659 678.296C338.63 678.477 335.557 678.568 332.619 678.568ZM323.624 678.522C320.596 678.432 317.523 678.296 314.585 678.116C314.178 678.07 313.861 677.754 313.861 677.302C313.907 676.896 314.268 676.579 314.675 676.579C317.613 676.76 320.641 676.896 323.624 676.941C324.031 676.941 324.393 677.302 324.348 677.709C324.348 678.206 324.031 678.522 323.624 678.522ZM350.608 677.845C350.201 677.845 349.885 677.528 349.84 677.167C349.794 676.76 350.111 676.398 350.518 676.353C353.455 676.127 356.484 675.856 359.467 675.585C359.874 675.54 360.235 675.856 360.28 676.263C360.326 676.67 360.009 677.031 359.602 677.076C356.619 677.393 353.591 677.664 350.608 677.845ZM305.635 677.393C305.59 677.393 305.59 677.393 305.545 677.393C302.517 677.076 299.534 676.715 296.596 676.308C296.189 676.263 295.918 675.856 295.963 675.45C296.008 675.043 296.415 674.772 296.822 674.817C299.714 675.224 302.743 675.585 305.726 675.901C306.133 675.947 306.449 676.308 306.404 676.715C306.359 677.121 306.042 677.393 305.635 677.393ZM368.507 675.992C368.145 675.992 367.829 675.721 367.738 675.314C367.693 674.907 367.964 674.501 368.371 674.455C371.309 674.094 374.292 673.642 377.275 673.19C377.682 673.145 378.089 673.416 378.134 673.823C378.179 674.229 377.908 674.636 377.501 674.681C374.518 675.133 371.535 675.585 368.552 675.947C368.552 675.992 368.507 675.992 368.507 675.992ZM287.827 674.862C287.782 674.862 287.737 674.862 287.691 674.862C284.708 674.32 281.725 673.687 278.833 673.009C278.426 672.919 278.155 672.512 278.29 672.106C278.381 671.699 278.787 671.428 279.194 671.563C282.042 672.241 285.025 672.874 287.963 673.416C288.369 673.506 288.641 673.868 288.55 674.275C288.505 674.636 288.189 674.862 287.827 674.862ZM386.27 673.235C385.908 673.235 385.592 672.964 385.546 672.603C385.456 672.196 385.727 671.789 386.134 671.744C389.027 671.202 392.01 670.614 394.948 670.027C395.355 669.937 395.761 670.208 395.852 670.614C395.942 671.021 395.671 671.428 395.264 671.518C392.326 672.151 389.343 672.693 386.405 673.235C386.36 673.235 386.315 673.235 386.27 673.235ZM270.335 670.705C270.245 670.705 270.2 670.705 270.109 670.66C267.217 669.801 264.324 668.897 261.476 667.948C261.07 667.813 260.889 667.361 261.024 666.999C261.16 666.593 261.612 666.412 261.973 666.548C264.776 667.497 267.623 668.4 270.516 669.259C270.923 669.394 271.149 669.801 271.013 670.208C270.968 670.524 270.652 670.705 270.335 670.705ZM403.897 669.575C403.536 669.575 403.264 669.349 403.174 668.988C403.083 668.581 403.355 668.174 403.716 668.084C406.609 667.406 409.547 666.683 412.44 665.96C412.846 665.87 413.253 666.096 413.344 666.502C413.434 666.909 413.208 667.316 412.801 667.406C409.908 668.129 406.925 668.852 404.033 669.53C404.033 669.575 403.942 669.575 403.897 669.575ZM421.344 665.102C421.027 665.102 420.711 664.876 420.621 664.559C420.53 664.153 420.756 663.746 421.163 663.61C424.056 662.797 426.948 661.938 429.796 661.08C430.203 660.944 430.609 661.17 430.745 661.577C430.881 661.984 430.655 662.39 430.248 662.526C427.4 663.384 424.463 664.243 421.57 665.056C421.479 665.102 421.434 665.102 421.344 665.102ZM253.341 664.83C253.25 664.83 253.16 664.83 253.069 664.785C250.267 663.656 247.51 662.435 244.798 661.125C244.436 660.944 244.256 660.492 244.436 660.131C244.617 659.769 245.069 659.589 245.431 659.769C248.098 661.035 250.855 662.255 253.612 663.384C254.019 663.52 254.199 663.972 254.019 664.379C253.883 664.65 253.612 664.83 253.341 664.83ZM438.564 659.86C438.248 659.86 437.932 659.679 437.841 659.363C437.706 658.956 437.932 658.549 438.338 658.414C441.231 657.465 444.079 656.471 446.836 655.477C447.243 655.341 447.649 655.522 447.785 655.928C447.921 656.335 447.74 656.742 447.333 656.877C444.576 657.871 441.683 658.866 438.79 659.815C438.745 659.86 438.655 659.86 438.564 659.86ZM237.069 657.103C236.933 657.103 236.843 657.058 236.707 657.013C234.086 655.567 231.464 654.031 228.933 652.404C228.572 652.178 228.481 651.726 228.707 651.365C228.933 651.003 229.385 650.913 229.747 651.139C232.233 652.72 234.854 654.257 237.476 655.703C237.837 655.883 237.973 656.38 237.792 656.742C237.611 656.968 237.34 657.103 237.069 657.103ZM221.882 647.524C221.747 647.524 221.566 647.478 221.43 647.388C218.99 645.626 216.594 643.773 214.244 641.875C213.927 641.604 213.882 641.152 214.153 640.791C214.425 640.474 214.877 640.429 215.193 640.7C217.498 642.598 219.894 644.406 222.289 646.123C222.605 646.349 222.696 646.846 222.47 647.162C222.334 647.433 222.108 647.524 221.882 647.524ZM207.961 636.136C207.78 636.136 207.6 636.091 207.464 635.955C206.876 635.413 206.334 634.916 205.792 634.374C204.164 632.838 202.537 631.211 201.046 629.629C200.775 629.313 200.775 628.861 201.046 628.545C201.362 628.274 201.814 628.274 202.131 628.545C203.622 630.126 205.249 631.708 206.831 633.244C207.374 633.786 207.961 634.284 208.504 634.826C208.82 635.097 208.82 635.594 208.549 635.91C208.368 636.091 208.142 636.136 207.961 636.136ZM195.486 623.167C195.26 623.167 195.08 623.077 194.899 622.896C192.955 620.546 191.057 618.151 189.339 615.757C189.113 615.44 189.159 614.943 189.52 614.717C189.836 614.491 190.334 614.536 190.56 614.898C192.277 617.248 194.13 619.643 196.074 621.947C196.345 622.264 196.3 622.761 195.984 623.032C195.848 623.122 195.667 623.167 195.486 623.167ZM184.955 608.617C184.684 608.617 184.458 608.481 184.322 608.255C182.74 605.68 181.249 603.014 179.893 600.348C179.712 599.986 179.848 599.534 180.209 599.353C180.571 599.173 181.023 599.308 181.204 599.67C182.514 602.291 184.006 604.911 185.588 607.442C185.814 607.803 185.678 608.255 185.362 608.481C185.226 608.572 185.091 608.617 184.955 608.617ZM176.819 592.62C176.503 592.62 176.232 592.44 176.096 592.169C174.966 589.367 173.972 586.475 173.113 583.628C172.977 583.221 173.203 582.815 173.61 582.679C174.017 582.544 174.424 582.769 174.559 583.176C175.418 585.978 176.413 588.825 177.497 591.581C177.633 591.988 177.452 592.394 177.09 592.575C177 592.575 176.91 592.62 176.819 592.62ZM171.667 575.404C171.305 575.404 170.989 575.178 170.943 574.816C170.356 571.879 169.904 568.852 169.588 565.869C169.542 565.463 169.859 565.101 170.266 565.056C170.672 565.011 171.034 565.327 171.079 565.734C171.395 568.671 171.847 571.653 172.435 574.545C172.525 574.952 172.254 575.359 171.847 575.449C171.757 575.404 171.712 575.404 171.667 575.404ZM169.768 557.509C169.362 557.509 169 557.193 169 556.741C169 556.47 169 556.199 169 555.928C169 553.171 169.136 550.415 169.362 547.659C169.407 547.252 169.768 546.936 170.175 546.981C170.582 547.026 170.898 547.387 170.853 547.794C170.627 550.505 170.492 553.217 170.492 555.928C170.492 556.199 170.492 556.47 170.492 556.696C170.537 557.193 170.22 557.509 169.768 557.509ZM171.305 539.615C171.26 539.615 171.215 539.615 171.169 539.615C170.763 539.525 170.492 539.163 170.582 538.757C171.124 535.819 171.802 532.837 172.571 529.9C172.661 529.493 173.113 529.267 173.52 529.358C173.927 529.448 174.153 529.9 174.062 530.306C173.294 533.153 172.616 536.091 172.073 539.028C171.983 539.389 171.667 539.615 171.305 539.615ZM235.126 539.57C233.046 539.57 230.967 539.434 228.888 539.163C228.481 539.118 228.165 538.757 228.21 538.305C228.255 537.898 228.662 537.582 229.069 537.627C232.007 537.988 234.99 538.079 237.928 537.898C238.335 537.853 238.696 538.169 238.741 538.621C238.787 539.028 238.47 539.389 238.018 539.434C237.024 539.57 236.075 539.57 235.126 539.57ZM246.832 538.079C246.516 538.079 246.199 537.853 246.109 537.537C246.018 537.13 246.244 536.723 246.651 536.633C249.544 535.865 252.346 534.78 254.877 533.47C255.239 533.289 255.691 533.424 255.917 533.786C256.098 534.147 255.962 534.599 255.6 534.825C252.979 536.226 250.086 537.311 247.058 538.124C246.968 538.079 246.877 538.079 246.832 538.079ZM220.21 537.311C220.12 537.311 220.074 537.311 219.984 537.265C217.091 536.362 214.244 535.232 211.532 533.876C211.17 533.696 210.989 533.244 211.215 532.882C211.396 532.521 211.848 532.34 212.21 532.566C214.877 533.876 217.634 535.006 220.436 535.865C220.843 536 221.069 536.407 220.933 536.814C220.798 537.13 220.526 537.311 220.21 537.311ZM262.561 529.719C262.38 529.719 262.154 529.629 262.019 529.493C261.747 529.177 261.747 528.725 262.064 528.409C264.233 526.375 266.087 524.116 267.533 521.585C267.759 521.224 268.211 521.088 268.572 521.314C268.934 521.54 269.07 521.992 268.844 522.353C267.307 524.974 265.409 527.369 263.103 529.493C262.923 529.629 262.742 529.719 262.561 529.719ZM204.164 529.358C204.029 529.358 203.848 529.312 203.712 529.222C201.272 527.46 198.921 525.517 196.752 523.393C196.435 523.122 196.435 522.625 196.752 522.308C197.023 521.992 197.52 521.992 197.837 522.308C199.961 524.387 202.266 526.33 204.616 528.002C204.933 528.228 205.023 528.725 204.797 529.041C204.616 529.222 204.39 529.358 204.164 529.358ZM176.096 522.308C176.006 522.308 175.915 522.308 175.825 522.263C175.418 522.127 175.237 521.676 175.373 521.314C176.413 518.512 177.588 515.711 178.898 512.954C179.079 512.593 179.531 512.412 179.893 512.593C180.254 512.774 180.435 513.226 180.254 513.587C178.989 516.253 177.814 519.055 176.774 521.811C176.684 522.127 176.367 522.308 176.096 522.308ZM191.283 516.886C191.057 516.886 190.831 516.795 190.695 516.615C188.887 514.265 187.17 511.734 185.588 509.113C185.362 508.752 185.497 508.3 185.859 508.074C186.221 507.848 186.673 507.984 186.899 508.345C188.435 510.921 190.108 513.406 191.916 515.711C192.187 516.027 192.096 516.524 191.78 516.75C191.599 516.795 191.464 516.886 191.283 516.886ZM271.375 514.4C271.33 514.4 271.284 514.4 271.194 514.4C270.787 514.31 270.516 513.903 270.606 513.497C271.058 511.373 271.284 509.159 271.284 506.899C271.284 506.176 271.284 505.498 271.239 504.775C271.194 504.369 271.51 504.007 271.962 503.962C272.369 503.917 272.731 504.233 272.776 504.685C272.821 505.408 272.866 506.176 272.866 506.899C272.866 509.249 272.64 511.599 272.143 513.813C272.053 514.129 271.736 514.4 271.375 514.4ZM183.78 506.086C183.644 506.086 183.509 506.041 183.418 505.995C183.057 505.77 182.921 505.318 183.147 504.956C184.684 502.335 186.311 499.805 188.074 497.365C188.3 497.003 188.797 496.958 189.113 497.184C189.475 497.41 189.52 497.907 189.294 498.223C187.577 500.618 185.949 503.149 184.458 505.724C184.322 505.95 184.051 506.086 183.78 506.086ZM182.108 501.477C181.836 501.477 181.565 501.296 181.43 501.025C180.209 498.359 179.124 495.512 178.13 492.575C177.994 492.168 178.22 491.761 178.627 491.626C179.034 491.49 179.441 491.716 179.576 492.123C180.526 494.97 181.656 497.771 182.831 500.437C183.012 500.799 182.831 501.251 182.469 501.432C182.334 501.432 182.198 501.477 182.108 501.477ZM270.471 496.596C270.154 496.596 269.838 496.37 269.748 496.054C269.657 495.738 269.567 495.422 269.476 495.15C268.663 492.53 267.714 490.044 266.674 487.74C266.493 487.378 266.674 486.926 267.036 486.745C267.397 486.565 267.849 486.745 268.03 487.107C269.115 489.457 270.064 491.987 270.923 494.699C271.013 495.015 271.104 495.331 271.194 495.648C271.33 496.054 271.058 496.461 270.697 496.596C270.606 496.596 270.516 496.596 270.471 496.596ZM194.221 491.445C194.04 491.445 193.859 491.4 193.724 491.264C193.407 490.993 193.362 490.496 193.633 490.18C195.622 487.875 197.746 485.661 199.871 483.582C200.187 483.311 200.639 483.311 200.955 483.628C201.227 483.944 201.227 484.396 200.91 484.712C198.786 486.745 196.752 488.915 194.763 491.174C194.673 491.355 194.447 491.445 194.221 491.445ZM176.322 484.441C175.961 484.441 175.689 484.215 175.599 483.853C174.921 481.007 174.288 478.024 173.791 474.997C173.746 474.59 174.017 474.183 174.424 474.138C174.831 474.048 175.237 474.364 175.283 474.771C175.78 477.753 176.367 480.69 177.045 483.537C177.136 483.944 176.91 484.351 176.503 484.441C176.458 484.441 176.413 484.441 176.322 484.441ZM262.877 480.374C262.651 480.374 262.425 480.284 262.245 480.058C260.482 477.572 258.448 475.403 256.324 473.596C256.007 473.325 255.962 472.873 256.233 472.511C256.504 472.195 256.956 472.15 257.318 472.421C259.578 474.319 261.657 476.578 263.51 479.154C263.736 479.515 263.691 479.967 263.329 480.193C263.149 480.329 263.013 480.374 262.877 480.374ZM207.238 479.064C207.012 479.064 206.786 478.973 206.65 478.747C206.379 478.431 206.47 477.934 206.786 477.708C209.272 475.81 211.803 474.093 214.334 472.647C214.696 472.421 215.148 472.557 215.374 472.918C215.6 473.28 215.464 473.731 215.103 473.957C212.617 475.403 210.131 477.075 207.735 478.928C207.554 479.018 207.419 479.064 207.238 479.064ZM222.786 470.116C222.47 470.116 222.199 469.936 222.063 469.619C221.928 469.213 222.108 468.806 222.47 468.625C225.408 467.45 228.391 466.637 231.238 466.095C231.645 466.004 232.052 466.275 232.097 466.727C232.188 467.134 231.916 467.541 231.464 467.586C228.707 468.083 225.815 468.896 222.967 470.026C222.967 470.071 222.877 470.116 222.786 470.116ZM249.092 469.167C249.001 469.167 248.911 469.167 248.821 469.122C246.154 468.038 243.306 467.405 240.323 467.134C239.917 467.089 239.6 466.727 239.645 466.321C239.691 465.914 240.052 465.598 240.459 465.643C243.578 465.869 246.606 466.592 249.408 467.721C249.815 467.857 249.996 468.309 249.815 468.716C249.679 468.987 249.408 469.167 249.092 469.167ZM173.429 466.727C173.023 466.727 172.706 466.456 172.661 466.05C172.39 463.112 172.164 460.085 172.073 457.057C172.073 456.65 172.39 456.289 172.797 456.289C173.203 456.289 173.565 456.605 173.565 457.012C173.655 460.04 173.881 463.022 174.153 465.959C174.198 466.366 173.881 466.727 173.475 466.773C173.475 466.727 173.429 466.727 173.429 466.727ZM172.751 448.743C172.299 448.743 171.983 448.381 171.983 447.974C172.028 445.037 172.164 442.01 172.345 438.937C172.39 438.53 172.751 438.214 173.158 438.214C173.565 438.259 173.881 438.621 173.881 439.027C173.701 442.055 173.565 445.082 173.52 447.974C173.475 448.426 173.158 448.743 172.751 448.743ZM173.836 430.803C173.791 430.803 173.791 430.803 173.746 430.803C173.339 430.758 173.023 430.396 173.068 429.99C173.384 426.962 173.791 423.98 174.243 421.043C174.288 420.636 174.695 420.365 175.102 420.41C175.509 420.455 175.78 420.862 175.735 421.268C175.283 424.16 174.876 427.143 174.559 430.125C174.559 430.532 174.243 430.803 173.836 430.803ZM176.684 413.044C176.639 413.044 176.593 413.044 176.503 413.044C176.096 412.954 175.825 412.547 175.915 412.141C176.548 409.203 177.271 406.221 178.085 403.374C178.175 402.967 178.627 402.741 179.034 402.832C179.441 402.922 179.667 403.374 179.576 403.781C178.808 406.628 178.085 409.52 177.452 412.457C177.362 412.818 177.045 413.044 176.684 413.044ZM181.475 395.737C181.384 395.737 181.294 395.737 181.249 395.692C180.842 395.557 180.661 395.15 180.797 394.743C181.791 391.896 182.831 389.05 183.961 386.293C184.142 385.886 184.548 385.706 184.955 385.886C185.362 386.067 185.543 386.474 185.362 386.881C184.232 389.592 183.192 392.439 182.198 395.24C182.108 395.557 181.791 395.737 181.475 395.737ZM188.345 379.108C188.255 379.108 188.119 379.063 188.029 379.018C187.667 378.837 187.486 378.385 187.667 378.024C188.978 375.312 190.379 372.646 191.87 370.026C192.096 369.664 192.548 369.528 192.91 369.754C193.272 369.98 193.407 370.432 193.181 370.794C191.735 373.369 190.334 376.035 189.023 378.702C188.887 378.973 188.616 379.108 188.345 379.108ZM197.204 363.519C197.068 363.519 196.933 363.473 196.797 363.383C196.436 363.157 196.345 362.705 196.571 362.344C198.198 359.858 199.961 357.373 201.769 354.978C202.04 354.662 202.492 354.571 202.809 354.842C203.125 355.114 203.215 355.565 202.944 355.882C201.136 358.232 199.419 360.717 197.791 363.202C197.701 363.383 197.43 363.519 197.204 363.519ZM208.052 349.149C207.871 349.149 207.69 349.104 207.554 348.968C207.238 348.697 207.193 348.2 207.464 347.884C209.408 345.624 211.487 343.365 213.566 341.241C213.837 340.925 214.334 340.925 214.651 341.241C214.967 341.512 214.967 342.009 214.651 342.325C212.571 344.449 210.537 346.663 208.594 348.923C208.458 349.058 208.232 349.149 208.052 349.149ZM220.617 336.315C220.391 336.315 220.21 336.225 220.074 336.044C219.803 335.728 219.803 335.276 220.12 334.96C222.334 332.972 224.685 331.028 227.035 329.131C227.351 328.859 227.849 328.905 228.075 329.266C228.346 329.582 228.301 330.08 227.939 330.306C225.589 332.158 223.283 334.101 221.114 336.044C220.978 336.27 220.798 336.315 220.617 336.315ZM426.858 331.526C426.677 331.526 426.496 331.435 426.316 331.3C424.191 329.266 421.976 327.233 419.671 325.335C419.355 325.064 419.31 324.612 419.581 324.25C419.852 323.934 420.304 323.889 420.666 324.16C423.016 326.103 425.276 328.091 427.4 330.17C427.717 330.441 427.717 330.938 427.4 331.254C427.265 331.48 427.039 331.526 426.858 331.526ZM234.719 325.199C234.493 325.199 234.267 325.109 234.086 324.883C233.86 324.521 233.95 324.07 234.267 323.844C236.707 322.126 239.284 320.455 241.815 318.918C242.177 318.692 242.628 318.828 242.854 319.189C243.08 319.551 242.945 320.003 242.583 320.229C240.052 321.765 237.521 323.437 235.08 325.109C234.99 325.154 234.854 325.199 234.719 325.199ZM412.982 320.138C412.846 320.138 412.666 320.093 412.53 320.003C410.135 318.331 407.603 316.704 404.982 315.213C404.62 314.987 404.485 314.535 404.711 314.173C404.937 313.812 405.389 313.676 405.75 313.902C408.372 315.439 410.948 317.065 413.389 318.783C413.75 319.009 413.796 319.506 413.57 319.822C413.434 320.048 413.208 320.138 412.982 320.138ZM250.041 315.8C249.77 315.8 249.499 315.665 249.363 315.394C249.182 315.032 249.318 314.58 249.679 314.354C252.301 312.953 255.013 311.598 257.77 310.333C258.132 310.152 258.584 310.333 258.764 310.694C258.945 311.056 258.764 311.507 258.403 311.688C255.691 312.953 252.979 314.309 250.403 315.665C250.267 315.8 250.131 315.8 250.041 315.8ZM397.479 311.056C397.389 311.056 397.253 311.01 397.163 310.965C394.541 309.655 391.784 308.435 389.027 307.305C388.62 307.124 388.439 306.717 388.62 306.311C388.801 305.904 389.208 305.723 389.614 305.904C392.417 307.034 395.174 308.299 397.841 309.609C398.202 309.79 398.383 310.242 398.202 310.604C398.021 310.875 397.75 311.056 397.479 311.056ZM266.358 308.254C266.041 308.254 265.77 308.073 265.635 307.757C265.499 307.35 265.68 306.943 266.041 306.763C268.798 305.678 271.691 304.594 274.539 303.645C274.946 303.509 275.352 303.735 275.488 304.097C275.623 304.503 275.397 304.91 275.036 305.046C272.188 305.994 269.386 307.034 266.629 308.118C266.539 308.209 266.448 308.254 266.358 308.254ZM380.846 304.232C380.755 304.232 380.665 304.232 380.62 304.187C377.818 303.238 374.97 302.379 372.077 301.611C371.671 301.521 371.444 301.069 371.535 300.708C371.625 300.301 372.077 300.075 372.439 300.165C375.377 300.933 378.269 301.837 381.072 302.786C381.479 302.922 381.659 303.328 381.524 303.735C381.479 304.006 381.162 304.232 380.846 304.232ZM283.352 302.515C283.036 302.515 282.72 302.289 282.629 301.973C282.539 301.566 282.765 301.159 283.172 301.024C286.064 300.21 289.002 299.487 291.94 298.81C292.347 298.719 292.754 298.99 292.844 299.397C292.935 299.804 292.663 300.21 292.257 300.301C289.364 300.933 286.426 301.702 283.578 302.47C283.488 302.515 283.443 302.515 283.352 302.515ZM363.49 299.533C363.444 299.533 363.399 299.533 363.354 299.533C360.461 298.945 357.478 298.403 354.54 297.951C354.133 297.906 353.862 297.499 353.907 297.093C353.953 296.686 354.359 296.415 354.766 296.46C357.749 296.912 360.732 297.454 363.67 298.041C364.077 298.132 364.348 298.539 364.258 298.945C364.168 299.262 363.851 299.533 363.49 299.533ZM300.935 298.584C300.573 298.584 300.257 298.313 300.211 297.951C300.121 297.544 300.438 297.138 300.844 297.093C303.782 296.595 306.811 296.144 309.794 295.827C310.2 295.782 310.562 296.053 310.652 296.505C310.698 296.912 310.426 297.273 309.974 297.364C307.036 297.725 304.053 298.132 301.115 298.629C301.025 298.584 300.98 298.584 300.935 298.584ZM345.727 296.867C345.681 296.867 345.681 296.867 345.636 296.867C342.698 296.595 339.67 296.415 336.687 296.279C336.28 296.279 335.964 295.918 335.964 295.511C335.964 295.104 336.325 294.788 336.732 294.788C339.715 294.923 342.789 295.104 345.727 295.375C346.133 295.421 346.45 295.782 346.404 296.189C346.45 296.595 346.088 296.867 345.727 296.867ZM318.788 296.505C318.381 296.505 318.065 296.189 318.02 295.782C317.975 295.375 318.291 295.014 318.743 294.969C321.726 294.788 324.754 294.652 327.783 294.607C328.189 294.607 328.551 294.923 328.551 295.33C328.551 295.737 328.235 296.098 327.828 296.098C324.845 296.144 321.862 296.234 318.879 296.46C318.788 296.505 318.788 296.505 318.788 296.505Z" fill="#FF8548"/>
<path d="M455.875 653.67C455.559 653.67 455.288 653.489 455.152 653.172C455.017 652.766 455.197 652.359 455.559 652.178C458.226 651.138 459.717 650.46 459.717 650.46C460.079 650.28 460.531 650.46 460.712 650.867C460.892 651.229 460.712 651.681 460.305 651.862C460.305 651.862 458.813 652.494 456.101 653.579C456.056 653.624 455.966 653.67 455.875 653.67Z" fill="#FF8548"/>
<path d="M497.549 333.197C497.503 333.197 497.458 333.197 497.368 333.197C496.961 333.107 496.69 332.7 496.78 332.293C497.097 330.802 497.503 329.311 498.001 327.865C498.136 327.458 498.543 327.232 498.95 327.368C499.357 327.504 499.583 327.91 499.447 328.317C498.995 329.718 498.588 331.164 498.272 332.61C498.227 332.971 497.91 333.197 497.549 333.197Z" fill="#66192D"/>
<path d="M700.219 546.303C699.903 546.303 699.632 546.122 699.496 545.806C699.36 545.399 699.541 544.992 699.948 544.811C702.615 543.817 705.327 542.552 707.993 541.106C708.355 540.925 708.807 541.061 709.033 541.422C709.214 541.784 709.078 542.236 708.716 542.462C706.004 543.953 703.247 545.218 700.49 546.258C700.4 546.303 700.31 546.303 700.219 546.303ZM715.948 537.807C715.722 537.807 715.496 537.717 715.315 537.491C715.089 537.175 715.135 536.678 715.496 536.452C717.892 534.735 720.197 532.837 722.366 530.848C722.683 530.577 723.135 530.577 723.451 530.894C723.768 531.21 723.722 531.662 723.406 531.978C721.191 534.012 718.841 535.91 716.4 537.672C716.219 537.762 716.084 537.807 715.948 537.807ZM729.056 525.697C728.875 525.697 728.694 525.652 728.559 525.516C728.242 525.245 728.197 524.793 728.468 524.432C730.367 522.172 732.129 519.777 733.711 517.292C733.937 516.931 734.389 516.84 734.751 517.066C735.112 517.292 735.203 517.744 734.977 518.105C733.35 520.636 731.542 523.076 729.598 525.381C729.508 525.607 729.282 525.697 729.056 525.697ZM738.683 510.65C738.593 510.65 738.457 510.604 738.367 510.559C738.005 510.378 737.824 509.927 738.005 509.565C739.225 506.899 740.31 504.143 741.169 501.296C741.305 500.889 741.711 500.663 742.118 500.799C742.525 500.934 742.751 501.341 742.615 501.748C741.711 504.64 740.627 507.486 739.361 510.198C739.225 510.469 738.954 510.65 738.683 510.65ZM743.971 493.614C743.926 493.614 743.881 493.614 743.836 493.614C743.429 493.523 743.158 493.162 743.203 492.755C743.7 489.908 744.016 486.926 744.197 483.944C744.197 483.537 744.559 483.221 745.011 483.221C745.418 483.221 745.734 483.582 745.734 484.034C745.598 487.062 745.237 490.089 744.74 493.026C744.649 493.343 744.333 493.614 743.971 493.614ZM744.92 475.765C744.514 475.765 744.197 475.448 744.152 475.042C743.971 472.15 743.655 469.212 743.203 466.23C743.158 465.823 743.429 465.417 743.836 465.371C744.243 465.326 744.649 465.597 744.694 466.004C745.192 469.032 745.508 472.059 745.689 474.951C745.689 475.403 745.372 475.765 744.92 475.765ZM742.163 458.096C741.802 458.096 741.531 457.87 741.44 457.509C740.762 454.707 739.949 451.815 738.999 448.968C738.864 448.562 739.09 448.155 739.497 448.019C739.903 447.884 740.31 448.11 740.446 448.516C741.395 451.408 742.209 454.346 742.932 457.192C743.022 457.599 742.796 458.006 742.389 458.096C742.299 458.096 742.209 458.096 742.163 458.096ZM736.739 441.06C736.423 441.06 736.107 440.88 736.016 440.518C735.067 437.626 734.299 434.689 733.666 431.797C733.576 431.39 733.847 430.984 734.254 430.893C734.66 430.803 735.067 431.074 735.158 431.481C735.745 434.327 736.559 437.219 737.463 440.021C737.598 440.428 737.372 440.834 736.965 440.97C736.92 441.06 736.83 441.06 736.739 441.06ZM733.033 423.573C732.672 423.573 732.31 423.302 732.265 422.895C731.994 420.319 731.858 417.698 731.858 415.123C731.858 414.716 731.858 414.264 731.858 413.857C731.858 413.451 732.22 413.134 732.626 413.134C733.033 413.134 733.395 413.496 733.35 413.903C733.35 414.309 733.35 414.716 733.35 415.123C733.35 417.653 733.485 420.229 733.711 422.759C733.756 423.166 733.44 423.528 733.033 423.573ZM733.304 405.724C733.259 405.724 733.259 405.724 733.214 405.724C732.807 405.678 732.491 405.272 732.581 404.865C732.988 401.883 733.576 398.9 734.344 396.008C734.434 395.602 734.841 395.376 735.248 395.466C735.655 395.556 735.881 395.963 735.79 396.37C735.067 399.217 734.48 402.154 734.073 405.046C734.028 405.452 733.711 405.724 733.304 405.724ZM795.905 404.594C795.498 404.594 795.136 404.278 795.136 403.871C795.136 403.464 795.452 403.103 795.859 403.103C798.888 403.057 801.826 402.832 804.673 402.38C805.08 402.335 805.487 402.606 805.532 403.012C805.577 403.419 805.306 403.826 804.899 403.871C802.006 404.278 798.978 404.549 795.905 404.594ZM786.955 404.232C786.91 404.232 786.91 404.232 786.865 404.232C783.927 403.961 780.899 403.509 777.915 402.877C777.509 402.786 777.237 402.38 777.328 401.973C777.418 401.566 777.825 401.295 778.232 401.386C781.17 401.973 784.108 402.425 787 402.696C787.407 402.741 787.724 403.103 787.678 403.509C787.678 403.916 787.362 404.232 786.955 404.232ZM813.532 401.928C813.216 401.928 812.899 401.702 812.809 401.386C812.673 400.979 812.899 400.572 813.306 400.437C816.244 399.533 819.001 398.403 821.442 397.048C821.803 396.867 822.255 397.002 822.481 397.364C822.662 397.725 822.526 398.177 822.165 398.403C819.634 399.759 816.831 400.934 813.758 401.883C813.713 401.928 813.622 401.928 813.532 401.928ZM769.418 400.663C769.328 400.663 769.283 400.663 769.192 400.617C766.345 399.714 763.497 398.674 760.74 397.499C760.378 397.319 760.198 396.912 760.333 396.505C760.514 396.144 760.921 395.963 761.328 396.099C764.04 397.228 766.842 398.268 769.644 399.171C770.051 399.307 770.277 399.714 770.141 400.12C770.051 400.437 769.78 400.663 769.418 400.663ZM752.966 393.704C752.83 393.704 752.74 393.658 752.604 393.613C749.983 392.167 747.361 390.631 744.875 388.914C744.514 388.688 744.423 388.191 744.649 387.874C744.875 387.513 745.372 387.423 745.689 387.648C748.13 389.32 750.706 390.857 753.282 392.258C753.644 392.438 753.779 392.935 753.599 393.297C753.508 393.568 753.237 393.704 752.966 393.704ZM828.99 393.207C828.809 393.207 828.583 393.116 828.448 392.981C828.131 392.664 828.131 392.212 828.448 391.896C830.617 389.727 832.199 387.332 833.238 384.802C833.374 384.395 833.826 384.214 834.233 384.395C834.64 384.531 834.82 384.982 834.64 385.389C833.555 388.146 831.837 390.721 829.532 393.026C829.397 393.161 829.171 393.207 828.99 393.207ZM737.779 388.462C737.689 388.462 737.598 388.462 737.508 388.417C737.101 388.281 736.92 387.829 737.101 387.423C738.186 384.621 739.451 381.864 740.853 379.198C741.033 378.837 741.485 378.701 741.892 378.882C742.254 379.063 742.389 379.515 742.209 379.921C740.807 382.542 739.587 385.254 738.502 387.965C738.367 388.281 738.095 388.462 737.779 388.462ZM738.141 383.717C737.96 383.717 737.824 383.672 737.643 383.536C735.338 381.639 733.079 379.605 730.954 377.481C730.638 377.21 730.638 376.713 730.954 376.397C731.225 376.08 731.723 376.08 732.039 376.397C734.118 378.475 736.378 380.464 738.638 382.361C738.954 382.633 738.999 383.085 738.728 383.446C738.593 383.627 738.367 383.717 738.141 383.717ZM835.272 377.075C834.866 377.075 834.549 376.758 834.504 376.352C834.323 373.64 833.6 370.839 832.335 367.992C832.154 367.63 832.335 367.178 832.741 366.998C833.103 366.817 833.555 366.998 833.736 367.404C835.047 370.432 835.815 373.414 835.996 376.261C836.041 376.668 835.724 377.029 835.272 377.075C835.318 377.075 835.318 377.075 835.272 377.075ZM746.186 372.691C746.05 372.691 745.87 372.646 745.779 372.556C745.418 372.33 745.372 371.833 745.598 371.516C747.316 369.031 749.169 366.636 751.158 364.377C751.429 364.06 751.926 364.015 752.243 364.332C752.559 364.603 752.604 365.1 752.333 365.416C750.389 367.63 748.536 369.98 746.864 372.375C746.638 372.556 746.412 372.691 746.186 372.691ZM725.44 371.11C725.214 371.11 725.033 371.019 724.852 370.839C722.954 368.579 721.101 366.184 719.383 363.699C719.157 363.337 719.248 362.886 719.564 362.66C719.926 362.434 720.378 362.524 720.604 362.84C722.321 365.281 724.129 367.63 726.027 369.89C726.299 370.206 726.253 370.703 725.937 370.974C725.801 371.065 725.621 371.11 725.44 371.11ZM828.583 360.762C828.357 360.762 828.131 360.671 827.95 360.445C826.188 358.005 824.244 355.746 822.165 353.803C821.848 353.532 821.849 353.035 822.12 352.718C822.391 352.402 822.888 352.402 823.204 352.673C825.329 354.661 827.363 356.966 829.171 359.497C829.397 359.813 829.351 360.31 828.99 360.536C828.899 360.671 828.764 360.762 828.583 360.762ZM757.983 359.271C757.757 359.271 757.576 359.18 757.44 358.999C757.169 358.683 757.169 358.231 757.486 357.915C759.746 355.881 762.141 354.029 764.582 352.312C764.943 352.086 765.395 352.176 765.621 352.492C765.847 352.854 765.757 353.306 765.441 353.532C763.045 355.158 760.695 357.011 758.48 358.999C758.344 359.225 758.164 359.271 757.983 359.271ZM715.18 356.514C714.909 356.514 714.683 356.379 714.547 356.153C713.056 353.622 711.609 350.911 710.298 348.2C710.118 347.838 710.253 347.386 710.66 347.205C711.022 347.025 711.473 347.16 711.654 347.567C712.965 350.233 714.366 352.899 715.813 355.43C716.039 355.791 715.903 356.243 715.541 356.469C715.451 356.469 715.315 356.514 715.18 356.514ZM772.718 349.194C772.446 349.194 772.175 349.058 772.04 348.787C771.859 348.425 771.994 347.974 772.356 347.793C775.113 346.392 777.915 345.262 780.718 344.359C781.125 344.223 781.531 344.449 781.667 344.856C781.803 345.262 781.577 345.669 781.17 345.805C778.413 346.708 775.701 347.838 772.989 349.148C772.944 349.148 772.853 349.194 772.718 349.194ZM815.611 348.606C815.475 348.606 815.34 348.561 815.25 348.516C812.718 347.025 810.052 345.85 807.249 344.991C806.843 344.856 806.617 344.449 806.752 344.042C806.888 343.636 807.295 343.41 807.701 343.545C810.594 344.449 813.396 345.669 816.063 347.205C816.425 347.431 816.56 347.883 816.334 348.245C816.108 348.516 815.837 348.606 815.611 348.606ZM789.712 343.771C789.351 343.771 789.034 343.5 788.944 343.139C788.899 342.732 789.17 342.325 789.577 342.28C792.65 341.873 795.724 341.738 798.662 341.964C799.068 342.009 799.385 342.37 799.385 342.777C799.385 343.184 799.023 343.5 798.571 343.5C795.724 343.319 792.741 343.41 789.803 343.816C789.758 343.771 789.712 343.771 789.712 343.771ZM707.36 340.427C707.044 340.427 706.773 340.247 706.637 339.93C705.553 337.174 704.513 334.327 703.609 331.48C703.473 331.073 703.699 330.667 704.106 330.531C704.513 330.396 704.92 330.622 705.055 331.028C705.959 333.875 706.954 336.677 708.038 339.388C708.174 339.795 707.993 340.201 707.632 340.382C707.541 340.427 707.451 340.427 707.36 340.427ZM701.53 323.527C701.213 323.527 700.942 323.346 700.807 323.03C699.767 320.228 698.547 317.472 697.281 314.896C697.1 314.535 697.236 314.083 697.643 313.902C698.004 313.721 698.456 313.857 698.637 314.264C699.948 316.93 701.123 319.686 702.208 322.533C702.343 322.94 702.163 323.346 701.756 323.527C701.711 323.482 701.62 323.527 701.53 323.527ZM502.204 320.59C502.068 320.59 501.978 320.545 501.842 320.499C501.481 320.319 501.345 319.867 501.526 319.505C502.882 316.884 504.464 314.309 506.227 311.778C506.453 311.417 506.95 311.372 507.266 311.597C507.628 311.823 507.673 312.32 507.447 312.637C505.73 315.122 504.148 317.653 502.837 320.183C502.746 320.454 502.475 320.59 502.204 320.59ZM693.665 307.485C693.394 307.485 693.168 307.35 693.032 307.124C691.451 304.593 689.778 302.153 687.97 299.849C687.699 299.532 687.789 299.035 688.106 298.809C688.422 298.538 688.919 298.629 689.145 298.945C690.953 301.295 692.716 303.78 694.298 306.356C694.524 306.717 694.388 307.169 694.072 307.395C693.936 307.44 693.801 307.485 693.665 307.485ZM512.419 305.949C512.238 305.949 512.057 305.904 511.922 305.768C511.605 305.497 511.605 305 511.876 304.684C513.82 302.515 515.99 300.346 518.25 298.312C518.566 298.041 519.018 298.041 519.334 298.357C519.605 298.674 519.605 299.126 519.289 299.442C517.074 301.475 514.95 303.599 513.006 305.723C512.826 305.904 512.645 305.949 512.419 305.949ZM525.617 293.929C525.391 293.929 525.165 293.839 525.029 293.613C524.758 293.296 524.849 292.799 525.165 292.573C527.515 290.811 530.001 289.049 532.532 287.422C532.894 287.196 533.346 287.286 533.572 287.648C533.798 288.009 533.707 288.461 533.346 288.687C530.815 290.314 528.374 292.031 526.069 293.793C525.933 293.839 525.798 293.929 525.617 293.929ZM682.727 293.387C682.546 293.387 682.32 293.296 682.185 293.161C680.151 291.037 677.936 289.004 675.676 287.151C675.36 286.88 675.315 286.428 675.586 286.066C675.857 285.75 676.309 285.705 676.671 285.976C678.976 287.874 681.236 289.953 683.315 292.122C683.586 292.438 683.586 292.89 683.315 293.206C683.089 293.296 682.908 293.387 682.727 293.387ZM540.668 284.214C540.397 284.214 540.126 284.078 539.99 283.807C539.809 283.446 539.945 282.994 540.306 282.768C542.883 281.322 545.595 279.966 548.352 278.701C548.713 278.52 549.165 278.701 549.346 279.062C549.527 279.424 549.346 279.876 548.985 280.056C546.273 281.322 543.606 282.677 541.03 284.078C540.894 284.169 540.758 284.214 540.668 284.214ZM668.942 282C668.806 282 668.67 281.954 668.535 281.864C666.094 280.237 663.518 278.746 660.896 277.39C660.535 277.21 660.399 276.758 660.58 276.351C660.761 275.99 661.213 275.854 661.619 276.035C664.286 277.436 666.908 278.972 669.394 280.599C669.755 280.825 669.846 281.277 669.62 281.638C669.439 281.864 669.213 282 668.942 282ZM556.849 276.622C556.533 276.622 556.262 276.441 556.126 276.125C555.99 275.718 556.171 275.312 556.533 275.131C559.29 274.046 562.137 273.007 564.985 272.103C565.392 271.968 565.798 272.194 565.934 272.6C566.07 273.007 565.844 273.414 565.437 273.549C562.634 274.453 559.787 275.492 557.075 276.577C557.03 276.577 556.939 276.622 556.849 276.622ZM653.122 273.73C653.032 273.73 652.941 273.73 652.851 273.685C650.139 272.6 647.337 271.606 644.444 270.748C644.037 270.612 643.811 270.206 643.947 269.799C644.082 269.392 644.489 269.166 644.896 269.302C647.789 270.16 650.681 271.154 653.393 272.284C653.8 272.42 653.981 272.872 653.8 273.278C653.71 273.549 653.393 273.73 653.122 273.73ZM573.889 271.064C573.573 271.064 573.256 270.838 573.166 270.522C573.075 270.115 573.301 269.708 573.708 269.618C576.601 268.85 579.539 268.172 582.477 267.585C582.884 267.494 583.29 267.765 583.381 268.172C583.471 268.579 583.2 268.985 582.793 269.076C579.9 269.663 576.963 270.341 574.115 271.109C574.025 271.064 573.934 271.064 573.889 271.064ZM635.992 268.624C635.947 268.624 635.901 268.624 635.856 268.624C633.009 268.037 630.071 267.539 627.088 267.178C626.681 267.133 626.365 266.726 626.455 266.319C626.5 265.913 626.907 265.596 627.314 265.687C630.342 266.093 633.325 266.59 636.218 267.178C636.625 267.268 636.896 267.675 636.805 268.082C636.625 268.353 636.308 268.624 635.992 268.624ZM591.426 267.539C591.064 267.539 590.748 267.268 590.658 266.907C590.612 266.5 590.884 266.093 591.29 266.048C594.274 265.642 597.257 265.325 600.24 265.054C600.647 265.009 601.008 265.325 601.053 265.732C601.099 266.139 600.782 266.5 600.375 266.545C597.437 266.771 594.454 267.088 591.516 267.494C591.516 267.539 591.471 267.539 591.426 267.539ZM618.229 266.319C615.246 266.139 612.263 266.093 609.279 266.139C608.873 266.139 608.511 265.822 608.511 265.416C608.511 265.009 608.828 264.647 609.234 264.647C612.263 264.602 615.291 264.647 618.229 264.828C618.636 264.873 618.952 265.19 618.952 265.642C618.952 266.003 618.636 266.319 618.229 266.319Z" fill="#66192D"/>
<path d="M686.931 549.195C686.524 549.195 686.162 548.879 686.162 548.427C686.162 548.02 686.479 547.658 686.931 547.658C688.241 547.658 689.733 547.523 691.315 547.252C691.722 547.161 692.129 547.478 692.174 547.884C692.264 548.291 691.948 548.698 691.541 548.743C689.914 549.06 688.332 549.195 686.931 549.195Z" fill="#66192D"/>
<path d="M551.697 344.901H551.651C550.16 344.811 548.623 344.721 547.131 344.63C546.725 344.585 546.408 344.269 546.408 343.817C546.454 343.41 546.815 343.094 547.222 343.094C548.713 343.184 550.25 343.274 551.742 343.365C552.149 343.41 552.465 343.771 552.42 344.178C552.42 344.63 552.103 344.901 551.697 344.901Z" fill="#786AB5"/>
<path d="M694.479 776.309C693.846 776.309 693.213 776.309 692.581 776.309C692.174 776.309 691.812 775.947 691.857 775.541C691.857 775.134 692.219 774.818 692.626 774.818C695.654 774.863 698.637 774.818 701.62 774.592C702.027 774.546 702.389 774.863 702.434 775.315C702.479 775.721 702.163 776.083 701.711 776.128C699.315 776.218 696.92 776.309 694.479 776.309ZM683.541 775.767C683.496 775.767 683.496 775.767 683.45 775.767C680.467 775.495 677.394 775.044 674.411 774.546C674.004 774.456 673.733 774.095 673.778 773.688C673.868 773.281 674.23 773.01 674.637 773.055C677.62 773.598 680.603 774.004 683.586 774.275C683.993 774.321 684.309 774.682 684.264 775.089C684.264 775.45 683.948 775.767 683.541 775.767ZM710.705 775.089C710.344 775.089 710.027 774.818 709.982 774.456C709.937 774.049 710.208 773.643 710.615 773.598C713.553 773.146 716.536 772.558 719.474 771.88C719.88 771.79 720.287 772.016 720.378 772.423C720.468 772.829 720.242 773.236 719.835 773.326C716.897 774.049 713.869 774.592 710.886 775.044C710.75 775.089 710.705 775.089 710.705 775.089ZM665.687 772.739C665.642 772.739 665.552 772.739 665.507 772.739C662.523 772.061 659.586 771.293 656.693 770.434C656.286 770.299 656.06 769.892 656.196 769.485C656.331 769.079 656.738 768.853 657.145 768.988C659.992 769.802 662.93 770.57 665.868 771.248C666.275 771.338 666.546 771.745 666.456 772.151C666.32 772.513 666.004 772.739 665.687 772.739ZM728.333 770.886C728.016 770.886 727.7 770.706 727.609 770.389C727.474 769.983 727.7 769.576 728.107 769.44C730.954 768.491 733.756 767.452 736.514 766.277C736.92 766.096 737.327 766.277 737.508 766.684C737.689 767.045 737.508 767.497 737.101 767.678C734.299 768.853 731.451 769.937 728.559 770.886C728.468 770.886 728.378 770.886 728.333 770.886ZM648.241 767.678C648.15 767.678 648.06 767.678 647.969 767.633C645.122 766.639 642.229 765.509 639.472 764.379C639.065 764.198 638.885 763.792 639.065 763.385C639.246 762.978 639.653 762.798 640.06 762.978C642.817 764.153 645.664 765.238 648.467 766.232C648.874 766.367 649.054 766.819 648.919 767.181C648.874 767.497 648.557 767.678 648.241 767.678ZM745.011 763.792C744.74 763.792 744.468 763.656 744.333 763.385C744.152 763.024 744.288 762.572 744.649 762.346C747.271 760.945 749.892 759.454 752.424 757.827C752.785 757.601 753.237 757.691 753.463 758.053C753.689 758.414 753.599 758.866 753.237 759.092C750.661 760.719 747.994 762.255 745.327 763.656C745.237 763.792 745.101 763.792 745.011 763.792ZM631.517 760.674C631.427 760.674 631.291 760.629 631.201 760.583C628.489 759.228 625.777 757.827 623.156 756.336C622.794 756.11 622.658 755.658 622.884 755.297C623.11 754.935 623.562 754.799 623.924 755.025C626.5 756.517 629.212 757.917 631.879 759.228C632.24 759.409 632.421 759.86 632.24 760.222C632.105 760.538 631.834 760.674 631.517 760.674ZM760.288 754.076C760.062 754.076 759.836 753.986 759.7 753.76C759.429 753.444 759.52 752.947 759.836 752.721C762.232 750.913 764.582 749.015 766.797 747.027C767.113 746.756 767.565 746.801 767.881 747.072C768.153 747.389 768.107 747.84 767.836 748.157C765.576 750.19 763.181 752.133 760.785 753.941C760.604 754.031 760.424 754.076 760.288 754.076ZM615.788 751.727C615.653 751.727 615.517 751.681 615.381 751.591C612.85 749.919 610.319 748.202 607.923 746.394C607.607 746.123 607.517 745.672 607.788 745.355C608.014 745.039 608.511 744.948 608.827 745.22C611.223 747.027 613.709 748.744 616.24 750.371C616.602 750.597 616.692 751.049 616.466 751.41C616.285 751.591 616.014 751.727 615.788 751.727ZM773.848 742.056C773.667 742.056 773.486 741.966 773.305 741.831C772.989 741.559 772.989 741.062 773.305 740.746C775.384 738.577 777.418 736.318 779.317 734.013C779.588 733.697 780.04 733.652 780.401 733.923C780.718 734.194 780.763 734.646 780.492 735.007C778.548 737.357 776.514 739.616 774.39 741.831C774.254 742.011 774.028 742.056 773.848 742.056ZM601.234 740.882C601.053 740.882 600.873 740.836 600.737 740.701C598.432 738.758 596.127 736.724 593.957 734.6C593.641 734.329 593.641 733.832 593.912 733.516C594.183 733.2 594.68 733.2 594.997 733.471C597.166 735.549 599.426 737.583 601.731 739.481C602.048 739.752 602.093 740.204 601.822 740.565C601.641 740.791 601.46 740.882 601.234 740.882ZM588.081 728.41C587.901 728.41 587.675 728.319 587.539 728.184C585.46 725.97 583.426 723.665 581.528 721.361C581.256 721.044 581.302 720.547 581.618 720.276C581.934 720.005 582.432 720.05 582.703 720.366C584.646 722.671 586.635 724.975 588.669 727.145C588.94 727.461 588.94 727.913 588.624 728.229C588.443 728.319 588.262 728.41 588.081 728.41ZM785.373 728.093C785.238 728.093 785.057 728.048 784.921 727.958C784.56 727.732 784.515 727.235 784.741 726.919C786.458 724.478 788.13 721.903 789.622 719.327C789.848 718.966 790.3 718.83 790.661 719.056C791.023 719.282 791.159 719.734 790.933 720.095C789.396 722.716 787.724 725.292 785.961 727.777C785.87 728.003 785.644 728.093 785.373 728.093ZM576.465 714.447C576.239 714.447 576.013 714.356 575.878 714.13C574.07 711.69 572.307 709.16 570.68 706.629C570.454 706.268 570.544 705.816 570.906 705.59C571.267 705.364 571.719 705.454 571.945 705.816C573.573 708.301 575.335 710.832 577.098 713.227C577.324 713.543 577.279 714.04 576.962 714.266C576.782 714.402 576.646 714.447 576.465 714.447ZM794.594 712.504C794.503 712.504 794.368 712.458 794.277 712.413C793.916 712.233 793.735 711.781 793.916 711.419C795.227 708.708 796.447 705.951 797.532 703.15C797.667 702.743 798.119 702.562 798.526 702.698C798.933 702.834 799.114 703.285 798.978 703.692C797.893 706.494 796.673 709.295 795.317 712.052C795.136 712.323 794.91 712.504 794.594 712.504ZM566.522 699.264C566.25 699.264 566.024 699.128 565.889 698.902C564.352 696.236 562.906 693.525 561.55 690.859C561.369 690.497 561.505 690.045 561.911 689.865C562.273 689.684 562.725 689.819 562.906 690.226C564.217 692.892 565.663 695.558 567.2 698.179C567.426 698.541 567.29 698.993 566.928 699.219C566.793 699.264 566.657 699.264 566.522 699.264ZM801.148 695.603C801.057 695.603 801.012 695.603 800.922 695.558C800.515 695.423 800.289 695.016 800.424 694.609C801.283 691.717 801.961 688.78 802.549 685.843C802.639 685.436 803.001 685.165 803.453 685.255C803.859 685.346 804.131 685.707 804.04 686.159C803.453 689.096 802.775 692.079 801.916 695.061C801.78 695.378 801.464 695.603 801.148 695.603ZM804.537 677.799C804.537 677.799 804.492 677.799 804.447 677.799C804.04 677.754 803.724 677.393 803.769 676.986C803.995 674.41 804.131 671.835 804.131 669.304C804.131 668.852 804.131 668.446 804.131 667.994C804.131 667.587 804.447 667.226 804.854 667.226C805.261 667.226 805.622 667.542 805.622 667.949C805.622 668.4 805.622 668.852 805.622 669.259C805.622 671.835 805.487 674.456 805.261 677.077C805.261 677.483 804.899 677.799 804.537 677.799ZM804.221 659.679C803.859 659.679 803.543 659.408 803.453 659.001C803.046 656.019 802.504 653.037 801.78 650.19C801.69 649.783 801.916 649.376 802.323 649.286C802.73 649.196 803.136 649.422 803.227 649.828C803.995 652.766 804.537 655.793 804.944 658.821C804.989 659.227 804.718 659.634 804.311 659.679C804.266 659.679 804.266 659.679 804.221 659.679ZM799.701 642.146C799.385 642.146 799.114 641.966 798.978 641.649C797.893 638.893 796.583 636.136 795.136 633.561C794.955 633.199 795.046 632.747 795.407 632.521C795.769 632.341 796.221 632.431 796.447 632.793C797.938 635.459 799.249 638.215 800.379 641.062C800.515 641.469 800.334 641.875 799.972 642.056C799.882 642.146 799.792 642.146 799.701 642.146ZM741.757 634.058C739.406 634.058 737.237 633.696 735.203 633.018C734.796 632.883 734.615 632.431 734.751 632.069C734.886 631.663 735.338 631.482 735.7 631.618C738.231 632.521 741.169 632.793 744.333 632.431C744.74 632.386 745.101 632.702 745.146 633.109C745.192 633.516 744.875 633.877 744.469 633.922C743.565 633.967 742.661 634.058 741.757 634.058ZM753.192 631.618C752.875 631.618 752.604 631.437 752.469 631.121C752.333 630.714 752.514 630.307 752.876 630.126C755.452 629.132 758.119 627.777 760.876 626.15C761.237 625.924 761.689 626.06 761.915 626.421C762.141 626.783 762.006 627.234 761.644 627.46C758.842 629.132 756.039 630.488 753.418 631.527C753.373 631.618 753.282 631.618 753.192 631.618ZM728.242 627.777C728.016 627.777 727.79 627.686 727.655 627.46C725.802 625.065 724.536 622.083 724.039 618.829C723.994 618.423 724.265 618.016 724.672 617.971C725.078 617.926 725.485 618.197 725.53 618.604C725.982 621.586 727.157 624.342 728.83 626.557C729.101 626.873 729.011 627.37 728.694 627.596C728.559 627.732 728.378 627.777 728.242 627.777ZM790.887 626.331C790.661 626.331 790.435 626.24 790.3 626.014C788.537 623.619 786.594 621.315 784.515 619.146C784.243 618.829 784.243 618.378 784.515 618.061C784.831 617.79 785.283 617.79 785.599 618.061C787.724 620.275 789.712 622.625 791.52 625.065C791.792 625.382 791.701 625.879 791.385 626.105C791.204 626.285 791.068 626.331 790.887 626.331ZM768.831 622.535C768.605 622.535 768.379 622.445 768.243 622.219C767.972 621.902 768.062 621.405 768.379 621.179C770.684 619.417 772.853 617.383 774.842 615.079C775.113 614.763 775.61 614.717 775.927 614.989C776.243 615.26 776.288 615.757 776.017 616.073C773.983 618.468 771.723 620.592 769.328 622.399C769.147 622.49 769.011 622.535 768.831 622.535ZM778.367 613.271C778.187 613.271 778.051 613.226 777.87 613.091C777.599 612.865 777.328 612.639 777.057 612.413C774.887 610.696 772.763 609.114 770.684 607.668C770.322 607.442 770.277 606.945 770.503 606.629C770.729 606.267 771.226 606.222 771.542 606.448C773.667 607.894 775.836 609.521 778.006 611.283C778.277 611.509 778.548 611.735 778.865 611.961C779.181 612.232 779.226 612.684 778.955 613.045C778.819 613.181 778.593 613.271 778.367 613.271ZM725.304 610.515C725.214 610.515 725.169 610.515 725.078 610.47C724.672 610.334 724.446 609.928 724.581 609.521C725.485 606.403 727.067 603.601 729.191 601.387C729.463 601.071 729.96 601.071 730.276 601.342C730.593 601.613 730.593 602.11 730.321 602.426C728.378 604.46 726.931 607.081 726.073 609.927C725.937 610.289 725.666 610.515 725.304 610.515ZM780.582 608.888C780.447 608.888 780.311 608.843 780.221 608.798C779.859 608.572 779.723 608.12 779.949 607.759C781.396 605.273 782.661 602.562 783.746 599.67C783.882 599.263 784.334 599.082 784.741 599.218C785.147 599.354 785.328 599.805 785.193 600.212C784.063 603.149 782.752 605.951 781.26 608.527C781.125 608.753 780.853 608.888 780.582 608.888ZM763.452 603.059C763.316 603.059 763.226 603.014 763.09 602.969C760.288 601.432 757.531 600.212 754.955 599.263C754.548 599.128 754.367 598.676 754.503 598.314C754.638 597.908 755.09 597.727 755.452 597.862C758.119 598.811 760.966 600.077 763.814 601.658C764.175 601.839 764.311 602.336 764.13 602.697C763.949 602.878 763.678 603.059 763.452 603.059ZM737.372 598.043C737.056 598.043 736.74 597.817 736.649 597.501C736.514 597.094 736.74 596.687 737.146 596.552C739.949 595.693 743.067 595.422 746.412 595.739C746.819 595.784 747.135 596.145 747.09 596.552C747.045 596.959 746.683 597.275 746.276 597.23C743.113 596.913 740.22 597.185 737.598 597.953C737.553 597.998 737.463 598.043 737.372 598.043ZM787.181 592.033C787.136 592.033 787.046 592.033 787 592.033C786.594 591.943 786.368 591.536 786.458 591.129C787.136 588.328 787.724 585.345 788.176 582.318C788.221 581.911 788.628 581.64 789.034 581.685C789.441 581.73 789.712 582.137 789.667 582.544C789.215 585.662 788.628 588.644 787.95 591.536C787.814 591.807 787.498 592.033 787.181 592.033ZM789.757 574.094C789.306 574.048 788.989 573.732 788.989 573.28C789.125 571.156 789.17 568.942 789.17 566.728C789.17 565.915 789.17 565.056 789.125 564.243C789.125 563.836 789.441 563.475 789.848 563.475C790.255 563.475 790.616 563.791 790.616 564.198C790.616 565.056 790.661 565.869 790.661 566.728C790.661 568.942 790.616 571.202 790.481 573.325C790.481 573.777 790.164 574.094 789.757 574.094ZM789.441 555.973C789.034 555.973 788.718 555.657 788.673 555.296C788.447 552.358 788.085 549.331 787.633 546.303C787.588 545.896 787.859 545.49 788.266 545.445C788.673 545.399 789.08 545.671 789.125 546.077C789.577 549.105 789.893 552.178 790.164 555.115C790.21 555.521 789.893 555.883 789.486 555.928C789.486 555.973 789.441 555.973 789.441 555.973ZM786.865 537.989C786.503 537.989 786.187 537.717 786.142 537.401C785.554 534.509 784.921 531.527 784.153 528.59C784.063 528.183 784.288 527.776 784.695 527.686C785.102 527.595 785.509 527.821 785.599 528.228C786.322 531.21 787 534.193 787.588 537.13C787.678 537.537 787.407 537.943 787 538.034C786.955 537.989 786.91 537.989 786.865 537.989ZM782.481 520.411C782.164 520.411 781.848 520.185 781.757 519.868C780.899 517.022 779.995 514.13 779 511.283C778.865 510.876 779.091 510.469 779.452 510.334C779.859 510.198 780.266 510.424 780.401 510.786C781.396 513.678 782.345 516.57 783.204 519.462C783.339 519.868 783.113 520.275 782.707 520.411C782.661 520.411 782.571 520.411 782.481 520.411ZM776.56 503.239C776.243 503.239 775.972 503.059 775.836 502.742C774.752 499.986 773.576 497.139 772.356 494.382C772.175 494.021 772.356 493.569 772.763 493.388C773.124 493.208 773.576 493.388 773.757 493.795C774.978 496.597 776.153 499.398 777.238 502.2C777.373 502.607 777.192 503.013 776.831 503.194C776.74 503.239 776.65 503.239 776.56 503.239ZM769.237 486.655C768.966 486.655 768.695 486.52 768.559 486.249C767.249 483.537 765.847 480.826 764.446 478.205C764.265 477.844 764.401 477.392 764.763 477.166C765.124 476.985 765.576 477.121 765.802 477.482C767.249 480.148 768.605 482.86 769.96 485.571C770.141 485.932 770.006 486.384 769.599 486.565C769.463 486.61 769.373 486.655 769.237 486.655ZM760.695 470.659C760.424 470.659 760.198 470.523 760.062 470.297C758.57 467.722 756.989 465.101 755.361 462.57C755.135 462.209 755.226 461.757 755.587 461.531C755.949 461.305 756.401 461.395 756.627 461.757C758.254 464.333 759.836 466.953 761.373 469.529C761.599 469.891 761.463 470.343 761.102 470.569C760.966 470.614 760.83 470.659 760.695 470.659ZM750.977 455.295C750.751 455.295 750.48 455.16 750.344 454.979C748.627 452.493 746.864 450.008 745.101 447.613C744.875 447.297 744.92 446.8 745.237 446.574C745.553 446.303 746.05 446.393 746.276 446.709C748.084 449.15 749.847 451.635 751.565 454.12C751.791 454.482 751.7 454.934 751.384 455.159C751.248 455.295 751.113 455.295 750.977 455.295ZM740.175 440.745C739.949 440.745 739.723 440.654 739.587 440.473C737.734 438.124 735.79 435.774 733.802 433.515C733.53 433.198 733.576 432.701 733.892 432.43C734.208 432.159 734.706 432.204 734.977 432.52C736.966 434.825 738.909 437.175 740.762 439.525C741.033 439.841 740.988 440.338 740.627 440.564C740.491 440.699 740.31 440.745 740.175 440.745ZM728.333 426.962C728.107 426.962 727.926 426.872 727.79 426.736C725.756 424.522 723.632 422.308 721.553 420.184C721.282 419.868 721.282 419.416 721.553 419.1C721.869 418.829 722.321 418.829 722.638 419.1C724.762 421.224 726.886 423.438 728.92 425.652C729.191 425.968 729.191 426.42 728.875 426.736C728.694 426.917 728.513 426.962 728.333 426.962ZM715.541 414.129C715.361 414.129 715.18 414.084 715.044 413.903C712.875 411.87 710.615 409.791 708.355 407.848C708.038 407.577 707.993 407.08 708.264 406.763C708.536 406.447 709.033 406.402 709.349 406.673C711.609 408.661 713.914 410.695 716.084 412.773C716.4 413.045 716.4 413.542 716.129 413.858C715.948 414.039 715.767 414.129 715.541 414.129ZM701.891 402.199C701.711 402.199 701.575 402.154 701.394 402.019C699.044 400.121 696.648 398.268 694.253 396.461C693.936 396.189 693.846 395.738 694.117 395.421C694.389 395.105 694.84 395.015 695.157 395.286C697.552 397.093 699.993 398.991 702.343 400.889C702.66 401.16 702.705 401.612 702.434 401.928C702.298 402.109 702.072 402.199 701.891 402.199ZM687.383 391.309C687.247 391.309 687.066 391.264 686.931 391.174C684.49 389.456 681.959 387.785 679.428 386.158C679.066 385.932 678.976 385.48 679.202 385.118C679.428 384.757 679.88 384.667 680.241 384.893C682.772 386.519 685.304 388.236 687.79 389.954C688.151 390.18 688.196 390.677 687.97 390.993C687.835 391.174 687.609 391.309 687.383 391.309ZM672.106 381.458C671.97 381.458 671.834 381.413 671.699 381.368C669.122 379.832 666.456 378.34 663.834 376.894C663.473 376.714 663.337 376.217 663.518 375.855C663.699 375.494 664.196 375.358 664.557 375.539C667.224 376.985 669.846 378.521 672.467 380.057C672.829 380.283 672.964 380.735 672.738 381.097C672.648 381.323 672.377 381.458 672.106 381.458ZM656.196 372.782C656.06 372.782 655.97 372.737 655.879 372.692C653.213 371.336 650.455 370.026 647.744 368.806C647.382 368.625 647.201 368.173 647.382 367.812C647.563 367.45 648.015 367.269 648.376 367.45C651.133 368.715 653.891 370.026 656.602 371.381C656.964 371.562 657.145 372.014 656.919 372.376C656.738 372.601 656.467 372.782 656.196 372.782ZM639.698 365.236C639.608 365.236 639.517 365.236 639.427 365.191C636.67 364.061 633.822 362.931 631.02 361.847C630.613 361.711 630.432 361.259 630.568 360.853C630.704 360.446 631.156 360.265 631.562 360.401C634.41 361.44 637.257 362.57 640.015 363.745C640.421 363.925 640.602 364.332 640.421 364.739C640.286 365.055 640.015 365.236 639.698 365.236ZM622.749 358.864C622.658 358.864 622.568 358.864 622.523 358.819C619.675 357.87 616.783 356.967 613.89 356.063C613.483 355.927 613.257 355.521 613.393 355.114C613.528 354.707 613.935 354.481 614.342 354.617C617.234 355.475 620.172 356.424 623.02 357.373C623.427 357.509 623.607 357.915 623.517 358.322C623.336 358.638 623.065 358.864 622.749 358.864ZM605.347 353.668C605.302 353.668 605.212 353.668 605.166 353.623C602.274 352.854 599.336 352.131 596.398 351.454C595.991 351.363 595.72 350.957 595.81 350.55C595.901 350.143 596.308 349.872 596.714 349.962C599.652 350.64 602.635 351.363 605.528 352.131C605.935 352.222 606.161 352.629 606.07 353.035C605.98 353.442 605.709 353.668 605.347 353.668ZM587.675 349.601C587.629 349.601 587.584 349.601 587.539 349.601C584.601 349.013 581.618 348.516 578.635 348.019C578.228 347.974 577.957 347.567 578.002 347.161C578.047 346.754 578.454 346.483 578.861 346.528C581.844 347.025 584.872 347.567 587.81 348.11C588.217 348.2 588.488 348.607 588.398 349.013C588.353 349.375 588.036 349.601 587.675 349.601ZM569.776 346.709C569.731 346.709 569.731 346.709 569.686 346.709C566.702 346.302 563.719 345.986 560.691 345.67C560.284 345.624 559.968 345.263 560.013 344.856C560.058 344.45 560.42 344.133 560.827 344.178C563.855 344.495 566.883 344.811 569.866 345.218C570.273 345.263 570.59 345.67 570.499 346.076C570.454 346.438 570.138 346.709 569.776 346.709Z" fill="#786AB5"/>
<path d="M558.386 682.815C558.07 682.815 557.798 682.634 557.708 682.363C556.623 679.652 556.126 678.161 556.081 678.07C555.945 677.663 556.171 677.257 556.578 677.121C556.985 676.986 557.391 677.212 557.527 677.618C557.527 677.618 558.024 679.155 559.109 681.821C559.245 682.227 559.064 682.634 558.702 682.815C558.567 682.815 558.476 682.815 558.386 682.815Z" fill="#786AB5"/>
<path d="M386.134 503.465C384.643 503.465 383.106 503.42 381.614 503.284C381.298 503.284 381.072 503.013 381.072 502.697C381.072 502.38 381.388 502.154 381.659 502.154C384.597 502.38 387.626 502.38 390.609 502.154C390.925 502.154 391.196 502.38 391.196 502.697C391.196 503.013 390.97 503.284 390.654 503.284C389.208 503.42 387.671 503.465 386.134 503.465ZM399.694 502.019C399.422 502.019 399.196 501.838 399.151 501.567C399.106 501.251 399.287 500.98 399.603 500.889C400.281 500.754 401.004 500.573 401.682 500.392C401.999 500.302 402.315 500.482 402.36 500.799C402.451 501.115 402.27 501.431 401.954 501.477C401.23 501.657 400.507 501.793 399.829 501.974C399.739 502.019 399.739 502.019 399.694 502.019ZM372.71 502.019C372.665 502.019 372.62 502.019 372.574 502.019C369.591 501.386 366.654 500.483 363.806 499.398C363.535 499.308 363.354 498.946 363.49 498.675C363.58 498.404 363.942 498.223 364.213 498.359C367.015 499.398 369.908 500.257 372.8 500.934C373.117 500.98 373.298 501.296 373.252 501.612C373.207 501.838 372.981 502.019 372.71 502.019ZM355.851 495.602C355.761 495.602 355.67 495.557 355.58 495.512C352.913 494.021 350.382 492.349 347.941 490.496C347.715 490.315 347.625 489.954 347.851 489.683C348.032 489.457 348.393 489.366 348.664 489.592C351.015 491.4 353.546 493.072 356.167 494.518C356.439 494.653 356.529 495.015 356.393 495.286C356.213 495.512 356.032 495.602 355.851 495.602ZM341.523 484.622C341.387 484.622 341.207 484.576 341.116 484.441C338.992 482.272 337.003 479.922 335.195 477.482C335.014 477.211 335.06 476.895 335.331 476.669C335.602 476.488 335.918 476.533 336.144 476.804C337.907 479.199 339.851 481.504 341.93 483.627C342.156 483.853 342.156 484.215 341.93 484.441C341.794 484.576 341.659 484.622 341.523 484.622ZM330.811 470.116C330.63 470.116 330.404 470.026 330.314 469.8C328.867 467.134 327.602 464.378 326.517 461.531C326.427 461.26 326.562 460.898 326.834 460.808C327.105 460.717 327.466 460.853 327.557 461.124C328.641 463.926 329.907 466.682 331.308 469.258C331.444 469.529 331.353 469.89 331.082 470.026C330.992 470.071 330.901 470.116 330.811 470.116ZM324.348 453.261C324.076 453.261 323.85 453.081 323.805 452.809C323.082 449.917 322.54 446.89 322.133 443.862C322.088 443.546 322.314 443.275 322.63 443.23C322.946 443.184 323.218 443.41 323.263 443.727C323.624 446.709 324.167 449.691 324.89 452.538C324.98 452.855 324.8 453.171 324.483 453.216C324.393 453.216 324.348 453.261 324.348 453.261ZM322.042 435.322C321.726 435.322 321.5 435.096 321.455 434.78C321.455 434.328 321.455 433.921 321.455 433.469C321.455 430.893 321.59 428.273 321.771 425.652C321.816 425.335 322.088 425.109 322.404 425.155C322.72 425.2 322.946 425.471 322.901 425.787C322.675 428.363 322.585 430.939 322.585 433.469C322.585 433.921 322.585 434.328 322.585 434.78C322.63 435.051 322.404 435.322 322.042 435.322C322.088 435.322 322.088 435.322 322.042 435.322ZM323.579 417.292C323.534 417.292 323.534 417.292 323.489 417.292C323.172 417.247 322.992 416.93 323.037 416.614C323.263 415.258 323.579 413.858 323.85 412.457C324.212 410.83 324.483 409.248 324.619 407.712C324.664 407.396 324.935 407.17 325.252 407.215C325.568 407.26 325.794 407.531 325.749 407.848C325.613 409.384 325.342 411.011 324.98 412.728C324.664 414.084 324.393 415.484 324.167 416.84C324.076 417.111 323.85 417.292 323.579 417.292ZM324.438 399.443C324.212 399.443 323.986 399.262 323.896 399.036C323.082 396.234 321.726 393.749 319.692 391.49C319.466 391.264 319.511 390.902 319.737 390.676C319.963 390.45 320.325 390.496 320.551 390.721C322.675 393.116 324.167 395.737 325.026 398.72C325.116 399.036 324.935 399.352 324.619 399.443C324.528 399.443 324.483 399.443 324.438 399.443ZM313.048 386.112C312.958 386.112 312.867 386.067 312.777 386.022C310.472 384.666 307.85 383.401 304.686 382.181C304.415 382.045 304.234 381.729 304.37 381.458C304.505 381.187 304.822 381.006 305.093 381.142C308.302 382.407 311.014 383.672 313.364 385.073C313.635 385.254 313.726 385.57 313.545 385.841C313.455 386.022 313.274 386.112 313.048 386.112ZM296.324 379.289C296.279 379.289 296.234 379.289 296.144 379.244C293.161 378.34 290.042 377.436 287.42 376.713C287.104 376.623 286.923 376.307 287.014 376.035C287.104 375.719 287.42 375.538 287.692 375.629C290.313 376.352 293.432 377.21 296.415 378.159C296.731 378.25 296.867 378.566 296.776 378.882C296.776 379.108 296.55 379.289 296.324 379.289ZM278.833 374.318C278.787 374.318 278.742 374.318 278.697 374.318C275.262 373.369 272.505 372.556 269.974 371.743C269.657 371.652 269.522 371.336 269.612 371.02C269.702 370.703 270.019 370.568 270.335 370.658C272.866 371.426 275.623 372.285 279.013 373.234C279.33 373.324 279.511 373.641 279.42 373.912C279.33 374.138 279.104 374.318 278.833 374.318ZM261.567 368.851C261.522 368.851 261.431 368.851 261.386 368.805C258.358 367.676 255.6 366.501 252.979 365.281C252.708 365.145 252.572 364.829 252.708 364.513C252.843 364.241 253.16 364.106 253.476 364.241C256.052 365.462 258.764 366.591 261.793 367.721C262.064 367.811 262.245 368.173 262.109 368.444C262.019 368.67 261.793 368.851 261.567 368.851ZM245.25 361.033C245.16 361.033 245.024 360.988 244.934 360.943C242.267 359.271 239.781 357.463 237.566 355.565C237.34 355.339 237.295 355.023 237.521 354.752C237.747 354.526 238.063 354.481 238.335 354.707C240.504 356.56 242.945 358.322 245.566 359.994C245.838 360.175 245.928 360.491 245.747 360.762C245.612 360.943 245.431 361.033 245.25 361.033ZM231.645 349.239C231.464 349.239 231.329 349.149 231.193 349.013C229.295 346.663 227.577 344.088 226.176 341.422C226.041 341.151 226.131 340.789 226.402 340.653C226.673 340.518 227.035 340.608 227.171 340.879C228.572 343.5 230.199 345.986 232.052 348.29C232.233 348.516 232.233 348.878 231.962 349.104C231.871 349.194 231.781 349.239 231.645 349.239ZM465.186 333.785C464.96 333.785 464.734 333.604 464.644 333.378C463.785 330.486 462.881 327.594 461.932 324.747C461.842 324.431 461.977 324.115 462.294 324.024C462.61 323.934 462.927 324.07 463.017 324.386C463.966 327.233 464.915 330.125 465.729 333.062C465.819 333.378 465.638 333.695 465.367 333.785C465.277 333.785 465.232 333.785 465.186 333.785ZM223.193 333.423C222.967 333.423 222.741 333.288 222.651 333.017C221.747 330.215 221.069 327.233 220.617 324.16C220.572 323.844 220.798 323.573 221.069 323.527C221.385 323.482 221.656 323.708 221.702 323.979C222.154 327.007 222.832 329.944 223.69 332.655C223.781 332.972 223.6 333.288 223.329 333.378C223.329 333.423 223.283 333.423 223.193 333.423ZM459.356 316.614C459.13 316.614 458.904 316.478 458.813 316.252C457.729 313.45 456.553 310.649 455.378 307.892C455.243 307.621 455.378 307.26 455.65 307.124C455.921 306.989 456.282 307.124 456.418 307.395C457.638 310.152 458.813 312.953 459.898 315.8C460.034 316.071 459.853 316.433 459.582 316.523C459.491 316.614 459.446 316.614 459.356 316.614ZM220.391 315.71C220.074 315.71 219.848 315.484 219.803 315.168C219.758 314.309 219.758 313.45 219.758 312.592C219.758 310.468 219.848 308.299 219.984 306.085C219.984 305.769 220.255 305.543 220.572 305.543C220.888 305.543 221.114 305.814 221.114 306.13C220.978 308.344 220.888 310.513 220.888 312.592C220.888 313.45 220.888 314.309 220.933 315.122C220.978 315.439 220.707 315.665 220.391 315.71ZM312.008 310.739C310.336 310.739 308.664 310.649 306.991 310.423C306.675 310.378 306.449 310.107 306.494 309.79C306.539 309.474 306.811 309.248 307.127 309.293C310.065 309.655 313.093 309.7 316.031 309.384C316.347 309.338 316.619 309.564 316.664 309.881C316.709 310.197 316.483 310.468 316.167 310.513C314.765 310.694 313.364 310.739 312.008 310.739ZM324.935 308.615C324.709 308.615 324.483 308.48 324.393 308.254C324.302 307.938 324.438 307.621 324.754 307.531C327.557 306.582 330.269 305.271 332.8 303.69C333.071 303.509 333.433 303.6 333.568 303.871C333.749 304.142 333.659 304.503 333.387 304.639C330.766 306.266 328.009 307.576 325.116 308.57C325.026 308.57 324.98 308.615 324.935 308.615ZM298.268 308.344C298.223 308.344 298.132 308.344 298.087 308.299C295.194 307.26 292.392 305.904 289.861 304.277C289.59 304.097 289.499 303.78 289.68 303.509C289.861 303.238 290.223 303.148 290.449 303.328C292.935 304.91 295.601 306.22 298.449 307.26C298.765 307.35 298.901 307.712 298.81 307.983C298.72 308.209 298.494 308.344 298.268 308.344ZM452.034 300.075C451.808 300.075 451.627 299.939 451.536 299.759C450.18 297.047 448.779 294.381 447.288 291.806C447.152 291.534 447.243 291.173 447.514 291.037C447.785 290.902 448.147 290.992 448.282 291.263C449.774 293.884 451.175 296.55 452.531 299.307C452.666 299.578 452.576 299.939 452.26 300.075C452.214 300.075 452.124 300.075 452.034 300.075ZM340.077 299.036C339.941 299.036 339.806 298.99 339.715 298.9C339.489 298.674 339.444 298.313 339.67 298.087C341.704 295.827 343.241 293.297 344.235 290.585C344.325 290.269 344.642 290.134 344.958 290.224C345.275 290.314 345.41 290.676 345.32 290.947C344.28 293.794 342.698 296.46 340.529 298.81C340.393 298.945 340.258 299.036 340.077 299.036ZM283.172 298.629C283.036 298.629 282.855 298.584 282.765 298.448C280.641 296.189 278.833 293.658 277.386 290.992C277.251 290.721 277.341 290.36 277.612 290.224C277.883 290.088 278.245 290.179 278.381 290.45C279.737 293.026 281.499 295.466 283.578 297.635C283.804 297.861 283.804 298.222 283.533 298.448C283.443 298.584 283.307 298.629 283.172 298.629ZM221.521 297.635C221.476 297.635 221.476 297.635 221.43 297.635C221.114 297.59 220.888 297.318 220.933 297.002C221.34 294.11 221.882 291.128 222.515 288.055C222.56 287.739 222.877 287.558 223.193 287.603C223.509 287.648 223.69 287.965 223.645 288.281C223.012 291.308 222.47 294.291 222.063 297.183C222.063 297.454 221.837 297.635 221.521 297.635ZM443.175 284.304C442.994 284.304 442.813 284.214 442.678 284.033C441.05 281.503 439.378 278.972 437.615 276.532C437.435 276.261 437.48 275.945 437.751 275.764C438.022 275.583 438.339 275.628 438.519 275.899C440.282 278.34 441.954 280.87 443.582 283.446C443.762 283.717 443.672 284.078 443.401 284.214C443.355 284.259 443.265 284.304 443.175 284.304ZM274.855 282.813C274.584 282.813 274.358 282.632 274.313 282.361C273.861 280.192 273.635 277.933 273.635 275.673C273.635 274.86 273.68 274.002 273.725 273.188C273.725 272.872 273.996 272.646 274.313 272.646C274.629 272.646 274.855 272.917 274.855 273.233C274.81 274.047 274.765 274.86 274.765 275.628C274.765 277.797 274.991 279.966 275.397 282.09C275.443 282.406 275.262 282.678 274.945 282.768C274.9 282.813 274.855 282.813 274.855 282.813ZM346.043 282.406C345.727 282.406 345.501 282.181 345.455 281.864C345.32 279.063 344.777 276.171 343.738 273.188C343.647 272.872 343.783 272.556 344.099 272.465C344.416 272.375 344.732 272.51 344.823 272.827C345.862 275.899 346.45 278.927 346.585 281.819C346.63 282.135 346.405 282.406 346.043 282.406ZM225.227 279.921C225.182 279.921 225.137 279.921 225.091 279.921C224.775 279.831 224.594 279.514 224.685 279.243C225.498 276.261 226.447 273.324 227.397 270.567C227.487 270.251 227.849 270.115 228.12 270.206C228.436 270.296 228.572 270.658 228.481 270.929C227.487 273.64 226.583 276.532 225.769 279.514C225.724 279.74 225.498 279.921 225.227 279.921ZM432.643 269.573C432.463 269.573 432.327 269.483 432.192 269.347C430.293 266.997 428.304 264.693 426.316 262.479C426.09 262.253 426.135 261.891 426.361 261.665C426.587 261.439 426.948 261.485 427.174 261.71C429.208 263.925 431.197 266.229 433.095 268.624C433.276 268.85 433.231 269.212 433.005 269.438C432.869 269.528 432.734 269.573 432.643 269.573ZM340.483 265.371C340.303 265.371 340.122 265.28 339.986 265.1C338.54 262.614 336.822 260.174 334.834 257.734C334.653 257.508 334.653 257.147 334.924 256.921C335.15 256.74 335.512 256.74 335.738 257.011C337.726 259.451 339.489 261.982 340.981 264.512C341.116 264.783 341.026 265.145 340.8 265.28C340.709 265.371 340.619 265.371 340.483 265.371ZM275.985 264.964C275.94 264.964 275.849 264.964 275.804 264.919C275.488 264.828 275.352 264.512 275.443 264.196C276.347 261.394 277.522 258.593 279.059 255.791C279.194 255.52 279.556 255.429 279.827 255.565C280.098 255.701 280.189 256.062 280.053 256.333C278.561 259.044 277.386 261.846 276.527 264.557C276.437 264.783 276.256 264.964 275.985 264.964ZM231.374 262.931C231.284 262.931 231.193 262.931 231.148 262.885C230.877 262.75 230.741 262.433 230.877 262.117C232.188 259.27 233.634 256.559 235.171 254.074C235.352 253.803 235.668 253.712 235.939 253.893C236.21 254.074 236.301 254.39 236.12 254.661C234.628 257.101 233.182 259.767 231.871 262.569C231.826 262.795 231.6 262.931 231.374 262.931ZM420.44 256.198C420.304 256.198 420.169 256.152 420.033 256.017C417.863 253.938 415.604 251.86 413.344 249.962C413.118 249.781 413.072 249.419 413.298 249.148C413.479 248.922 413.841 248.877 414.112 249.103C416.372 251.046 418.677 253.125 420.847 255.203C421.073 255.429 421.073 255.791 420.847 256.017C420.756 256.152 420.575 256.198 420.44 256.198ZM329.184 251.317C329.048 251.317 328.913 251.272 328.777 251.182C326.653 249.148 324.348 247.16 321.952 245.353C321.726 245.172 321.636 244.81 321.862 244.539C322.042 244.268 322.404 244.223 322.675 244.449C325.116 246.301 327.466 248.29 329.591 250.368C329.817 250.594 329.817 250.956 329.591 251.182C329.455 251.227 329.319 251.317 329.184 251.317ZM284.482 249.013C284.347 249.013 284.256 248.968 284.166 248.922C283.895 248.742 283.85 248.38 284.03 248.109C285.296 246.437 286.652 244.72 288.144 243.048C288.731 242.415 289.319 241.737 289.906 241.15C290.132 240.924 290.494 240.924 290.72 241.15C290.946 241.376 290.946 241.738 290.72 241.963C290.132 242.596 289.545 243.229 288.957 243.861C287.511 245.488 286.155 247.16 284.889 248.832C284.799 248.968 284.618 249.013 284.482 249.013ZM240.911 247.567C240.775 247.567 240.64 247.522 240.549 247.431C240.323 247.25 240.278 246.889 240.459 246.618C242.448 244.223 244.572 242.009 246.832 240.066C247.058 239.84 247.42 239.885 247.646 240.111C247.872 240.337 247.826 240.698 247.6 240.924C245.431 242.822 243.306 244.991 241.363 247.341C241.227 247.522 241.092 247.567 240.911 247.567ZM406.654 244.494C406.519 244.494 406.428 244.449 406.338 244.404C403.897 242.596 401.411 240.879 398.925 239.297C398.654 239.117 398.564 238.8 398.745 238.529C398.925 238.258 399.242 238.168 399.513 238.348C402.044 239.975 404.575 241.692 407.016 243.5C407.287 243.681 407.332 244.042 407.151 244.313C407.016 244.404 406.835 244.494 406.654 244.494ZM314.811 240.337C314.72 240.337 314.63 240.291 314.54 240.246C311.963 238.665 309.296 237.264 306.585 235.999C306.313 235.863 306.178 235.547 306.313 235.23C306.449 234.959 306.765 234.824 307.082 234.959C309.794 236.225 312.506 237.671 315.127 239.252C315.398 239.433 315.489 239.749 315.308 240.02C315.172 240.201 314.991 240.337 314.811 240.337ZM297.048 236.089C296.867 236.089 296.731 235.999 296.596 235.863C296.415 235.637 296.46 235.276 296.686 235.05C299.082 233.197 301.613 231.525 304.279 229.989C304.551 229.853 304.912 229.944 305.048 230.215C305.183 230.486 305.093 230.847 304.822 230.983C302.2 232.474 299.714 234.146 297.364 235.953C297.319 236.044 297.183 236.089 297.048 236.089ZM254.561 235.818C254.38 235.818 254.154 235.728 254.064 235.547C253.928 235.276 254.019 234.914 254.29 234.779C256.911 233.242 259.714 231.977 262.606 230.983C262.923 230.892 263.239 231.028 263.329 231.344C263.42 231.661 263.284 231.977 262.968 232.067C260.166 233.016 257.408 234.282 254.832 235.773C254.742 235.773 254.651 235.818 254.561 235.818ZM391.377 234.779C391.287 234.779 391.196 234.779 391.106 234.733C388.439 233.287 385.727 231.977 383.015 230.757C382.744 230.621 382.609 230.305 382.744 229.989C382.88 229.718 383.196 229.582 383.513 229.718C386.27 230.938 389.027 232.293 391.694 233.739C391.965 233.875 392.055 234.236 391.92 234.507C391.784 234.643 391.603 234.779 391.377 234.779ZM298.358 232.745C298.313 232.745 298.223 232.745 298.178 232.7C295.285 231.751 292.347 230.983 289.454 230.486C289.138 230.441 288.957 230.124 289.002 229.808C289.047 229.492 289.364 229.311 289.68 229.356C292.618 229.898 295.601 230.667 298.539 231.615C298.856 231.706 298.991 232.022 298.901 232.338C298.856 232.564 298.63 232.745 298.358 232.745ZM271.556 229.943C271.284 229.943 271.013 229.718 271.013 229.446C270.968 229.13 271.194 228.859 271.51 228.814C274.448 228.407 277.522 228.226 280.641 228.317C280.957 228.317 281.183 228.588 281.183 228.904C281.183 229.22 280.912 229.446 280.595 229.446C277.522 229.356 274.539 229.492 271.646 229.898C271.646 229.944 271.601 229.943 271.556 229.943ZM374.834 227.458C374.789 227.458 374.699 227.458 374.654 227.413C371.806 226.419 368.913 225.56 366.021 224.792C365.704 224.702 365.524 224.385 365.614 224.114C365.704 223.798 366.021 223.617 366.292 223.708C369.185 224.476 372.123 225.334 375.015 226.328C375.332 226.419 375.467 226.735 375.377 227.051C375.286 227.323 375.06 227.458 374.834 227.458ZM312.732 227.142C312.506 227.142 312.28 227.006 312.189 226.78C312.054 226.509 312.234 226.148 312.506 226.057C315.308 224.928 318.201 223.979 321.184 223.211C321.5 223.12 321.816 223.301 321.862 223.617C321.952 223.934 321.771 224.25 321.455 224.295C318.517 225.063 315.669 226.012 312.912 227.097C312.912 227.142 312.822 227.142 312.732 227.142ZM357.297 222.939C357.252 222.939 357.252 222.939 357.207 222.939C354.224 222.442 351.196 222.081 348.258 221.9C347.941 221.9 347.715 221.629 347.715 221.313C347.715 220.996 347.986 220.77 348.303 220.77C351.286 220.951 354.314 221.313 357.343 221.81C357.659 221.855 357.84 222.171 357.795 222.442C357.795 222.759 357.569 222.939 357.297 222.939ZM330.223 222.533C329.952 222.533 329.681 222.307 329.681 222.036C329.636 221.719 329.862 221.448 330.178 221.403C333.161 220.996 336.19 220.725 339.263 220.635C339.58 220.59 339.851 220.861 339.851 221.177C339.851 221.493 339.625 221.765 339.308 221.765C336.28 221.855 333.252 222.126 330.359 222.533C330.269 222.533 330.269 222.533 330.223 222.533Z" fill="#FF443C"/>
<path d="M240.459 291.715H215.555C214.199 291.715 213.069 290.631 213.069 289.23V274.679C213.069 273.324 214.153 272.194 215.555 272.194H240.459C241.815 272.194 242.945 273.279 242.945 274.679V289.23C242.945 290.586 241.815 291.715 240.459 291.715Z" fill="#FF443C"/>
<path d="M242.719 290.224L227.984 281.322L213.295 290.224C213.656 291.083 214.56 291.715 215.555 291.715H240.459C241.453 291.715 242.357 291.083 242.719 290.224Z" fill="#FF443C"/>
<path d="M213.295 273.686L228.029 283.717L242.719 273.731C242.357 272.872 241.453 272.24 240.459 272.24H215.555C214.56 272.194 213.701 272.827 213.295 273.686Z" fill="#FF443C"/>
<path d="M228.029 283.988L213.159 273.866L213.43 273.504L228.029 283.446L242.583 273.504L242.854 273.911L228.029 283.988Z" fill="#66192D"/>
<path d="M716.581 342.958H691.677C690.321 342.958 689.191 341.874 689.191 340.473V325.922C689.191 324.567 690.276 323.437 691.677 323.437H716.581C717.937 323.437 719.067 324.522 719.067 325.922V340.473C719.022 341.874 717.937 342.958 716.581 342.958Z" fill="#786AB5"/>
<path d="M718.796 341.466L704.061 332.564L689.371 341.466C689.733 342.325 690.637 342.958 691.631 342.958H716.536C717.575 342.958 718.434 342.37 718.796 341.466Z" fill="#786AB5"/>
<path d="M689.417 324.928L704.151 334.96L718.841 324.973C718.479 324.115 717.575 323.482 716.581 323.482H691.677C690.637 323.482 689.778 324.069 689.417 324.928Z" fill="#786AB5"/>
<path d="M704.106 335.231L689.281 325.154L689.552 324.747L704.106 334.688L718.705 324.792L718.977 325.154L704.106 335.231Z" fill="#66192D"/>
<path d="M818.097 673.145H793.193C791.837 673.145 790.707 672.06 790.707 670.66V656.109C790.707 654.753 791.792 653.624 793.193 653.624H818.097C819.453 653.624 820.583 654.708 820.583 656.109V670.66C820.538 672.015 819.453 673.145 818.097 673.145Z" fill="#FF8548"/>
<path d="M820.357 671.654L805.622 662.752L790.933 671.654C791.294 672.513 792.198 673.146 793.193 673.146H818.097C819.091 673.146 819.95 672.513 820.357 671.654Z" fill="#FF8548"/>
<path d="M790.933 655.115L805.667 665.147L820.357 655.16C819.995 654.302 819.091 653.669 818.097 653.669H793.193C792.198 653.669 791.294 654.257 790.933 655.115Z" fill="#FF8548"/>
<path d="M805.668 665.418L790.797 655.296L791.068 654.934L805.668 664.875L820.222 654.934L820.493 655.341L805.668 665.418Z" fill="#66192D"/>
<path d="M281.906 501.612H257.002C255.646 501.612 254.516 500.527 254.516 499.127V484.576C254.516 483.221 255.6 482.091 257.002 482.091H281.906C283.262 482.091 284.392 483.175 284.392 484.576V499.127C284.392 500.527 283.262 501.612 281.906 501.612Z" fill="#FFBA41"/>
<path d="M284.166 500.166L269.431 491.264L254.742 500.166C255.103 501.025 256.007 501.657 257.002 501.657H281.906C282.946 501.612 283.804 501.025 284.166 500.166Z" fill="#FFBA41"/>
<path d="M254.787 483.628L269.522 493.659L284.211 483.673C283.85 482.814 282.946 482.182 281.951 482.182H257.047C256.007 482.136 255.148 482.724 254.787 483.628Z" fill="#FFBA41"/>
<path d="M269.476 493.93L254.651 483.808L254.877 483.402L269.476 493.343L284.03 483.447L284.302 483.808L269.476 493.93Z" fill="#66192D"/>
<defs>
<linearGradient id="paint0_linear_7401_43" x1="190.718" y1="447.616" x2="982.936" y2="618.73" gradientUnits="userSpaceOnUse">
<stop offset="0.00666585" stop-color="#FF9C37"/>
<stop offset="0.9967" stop-color="#FF7300"/>
</linearGradient>
<linearGradient id="paint1_linear_7401_43" x1="661.986" y1="-79.3042" x2="480.825" y2="1162.62" gradientUnits="userSpaceOnUse">
<stop stop-color="#FFDF00"/>
<stop offset="1" stop-color="#FFB800"/>
</linearGradient>
</defs>
</svg>
